<?xml version="1.0" encoding="UTF-8" standalone="no"?>
<svg width="34px" height="25px" viewBox="0 0 34 25" version="1.1" xmlns="http://www.w3.org/2000/svg" xmlns:xlink="http://www.w3.org/1999/xlink">
    <!-- Generator: Sketch 3.7.2 (28276) - http://www.bohemiancoding.com/sketch -->
    <title>Icon</title>
    <desc>Created with Sketch.</desc>
    <defs></defs>
    <g id="Page-1" stroke="none" stroke-width="1" fill="none" fill-rule="evenodd">
        <g id="Icons" transform="translate(-19.000000, -166.000000)" fill="#43484D">
            <path d="M51,188 C51,188.551 50.551,189 50,189 L22,189 C21.449,189 21,188.551 21,188 L21,169 C21,168.449 21.449,168 22,168 L50,168 C50.551,168 51,168.449 51,169 L51,188 Z M50,166 L22,166 C20.346,166 19,167.346 19,169 L19,188 C19,189.654 20.346,191 22,191 L50,191 C51.654,191 53,189.654 53,188 L53,169 C53,167.346 51.654,166 50,166 Z M37.2095,183.708 L31.0075,176.473 L23.2475,185.341 L24.7525,186.659 L30.9925,179.527 L36.7905,186.292 L41.8455,183.259 L45.2925,186.707 L46.7075,185.293 L42.1545,180.741 L37.2095,183.708 Z M40,178 C42.206,178 44,176.206 44,174 C44,171.794 42.206,170 40,170 C37.794,170 36,171.794 36,174 C36,176.206 37.794,178 40,178 Z M40,172 C41.103,172 42,172.897 42,174 C42,175.103 41.103,176 40,176 C38.897,176 38,175.103 38,174 C38,172.897 38.897,172 40,172 Z" id="Icon"></path>
        </g>
    </g>
</svg>