<?xml version="1.0" encoding="utf-8"?>
<!-- Generator: Adobe Illustrator 24.2.1, SVG Export Plug-In . SVG Version: 6.00 Build 0)  -->
<svg version="1.1" id="圖層_1" focusable="false" xmlns="http://www.w3.org/2000/svg" xmlns:xlink="http://www.w3.org/1999/xlink"
	 x="0px" y="0px" viewBox="0 0 448 512" style="enable-background:new 0 0 448 512;" xml:space="preserve">
<style type="text/css">
	.st0{fill:#28A745;}
</style>
<path class="st0" d="M400,480H48c-26.5,0-48-21.5-48-48V80c0-26.5,21.5-48,48-48h352c26.5,0,48,21.5,48,48v352
	C448,458.5,426.5,480,400,480z M195.3,381.9l184-184c6.2-6.2,6.2-16.4,0-22.6l-22.6-22.6c-6.2-6.2-16.4-6.2-22.6,0L184,302.7
	l-70.1-70.1c-6.2-6.2-16.4-6.2-22.6,0l-22.6,22.6c-6.2,6.2-6.2,16.4,0,22.6l104,104C178.9,388.2,189.1,388.2,195.3,381.9
	L195.3,381.9z"/>
</svg>
