<?xml version="1.0" encoding="utf-8"?>
<!-- Generator: Adobe Illustrator 22.1.0, SVG Export Plug-In . SVG Version: 6.00 Build 0)  -->
<svg version="1.1" id="圖層_1" xmlns="http://www.w3.org/2000/svg" xmlns:xlink="http://www.w3.org/1999/xlink" x="0px" y="0px"
	 viewBox="0 0 693 164" style="enable-background:new 0 0 693 164;" xml:space="preserve">
<style type="text/css">
	.st0{fill:none;stroke:#868686;stroke-width:3;stroke-linecap:round;stroke-linejoin:round;stroke-miterlimit:10;}
	.st1{fill:#BEA380;}
	.st2{font-family:'ARJULIAN';}
	.st3{font-size:130px;}
	.st4{letter-spacing:39;}
	.st5{fill:#333333;}
</style>
<g>
	<g>
		<g>
			<path class="st0" d="M119.6,152.6l-101.9-22c-5.9-1.3-9.6-7.1-8.4-13l22-101.9c1.3-5.9,7.1-9.6,13-8.4l101.9,22
				c5.9,1.3,9.6,7.1,8.4,13l-22,101.9C131.3,150.1,125.5,153.8,119.6,152.6z"/>
		</g>
		<text transform="matrix(1 0 0 1 94 127.7188)" class="st1 st2 st3 st4">.</text>
	</g>
	<g>
		<path class="st5" d="M237,125.2c-1.6,1.2-3.6,2.6-5.9,4.1c-2.4,1.6-5.1,3.3-8.3,5.1c-2.9,1.6-5.4,3-7.6,4.2c-2.2,1.2-4,2-5.5,2.6
			c-2.2,1-4.5,1.7-6.9,2.1c-2.4,0.4-4.9,0.7-7.5,0.7c-0.8,0-1.7-0.1-2.7-0.3c-1-0.2-2-0.5-3.1-0.8c-1.4-0.4-2.5-0.7-3.5-0.9
			c-1-0.3-1.7-0.4-2.4-0.5l-1-0.9l-2.3-0.3c-1-0.1-2.2-0.5-3.6-1.5c-1.4-0.9-2.9-2.2-4.6-3.9c-1.6-1.6-2.9-3-3.9-4.4
			c-1-1.4-1.7-2.7-2.1-3.8l-2.1-6.7c-0.7-2.3-1.3-4.1-1.7-5.5c-0.4-1.4-0.5-2.3-0.5-2.7l0.9-3.5c-0.4-1.2-0.8-2.2-1-2.9
			c-0.2-0.8-0.4-1.4-0.4-1.8c0-0.4,0.1-1.7,0.4-3.8c0.3-2.1,0.6-5.1,1.1-8.8c0.4-0.7,0.8-1.6,1.2-2.6c0.4-1,0.8-2.2,1.2-3.5
			l-0.2-1.7c0-0.4,0.1-0.9,0.3-1.4c0.2-0.5,0.4-1.2,0.8-1.8c1.2-2.5,2.4-5.1,3.7-7.7c1.2-2.6,2.4-5.1,3.7-7.5
			c1.1-1.9,2.4-3.8,4.1-5.7c1.7-2,3.6-4,5.8-6.1c0.5-0.5,1.1-1.2,1.7-2c0.7-0.8,1.5-1.7,2.5-2.7c0.9-0.5,2-1.3,3.3-2.4
			c1.3-1.1,2.8-2.4,4.6-4.1c0.5-0.2,1.2-0.5,1.9-0.9c0.7-0.4,1.6-0.8,2.7-1.3c0.3-0.2,0.6-0.4,1-0.8c0.4-0.4,0.9-0.7,1.4-1.2
			c0.6-0.5,2.7-1.3,6.4-2.3c3.7-1,6-1.6,7.2-1.6c2.4,0,4.5,0.2,6.2,0.5c1.7,0.3,3,0.9,4.1,1.6l2.5,0.5c2.1,0.5,3.7,2,4.7,4.7
			c1,2.7,1.5,6.6,1.5,11.6c0,2.4,0,4.3-0.1,5.7c-0.1,1.4-0.1,2.4-0.2,2.9c-0.3,1.6-0.7,3.5-1.1,5.9c-0.4,2.4-0.9,5.1-1.5,8.2
			c-0.1,0.8-0.4,2.2-1.1,4.1c-0.7,1.9-1.5,4.2-2.6,7c-1.1,3.1-2.1,5.4-2.9,6.9c-0.8,1.6-1.5,2.4-2,2.6c-2.1,0.5-4.4,1.1-6.8,1.7
			c-1.2,0-2-0.1-2.5-0.3c-0.5-0.2-0.7-0.5-0.7-0.9c0-0.4,0.1-0.9,0.3-1.7c0.2-0.8,0.3-1.3,0.3-1.6c-0.2-2-0.3-4-0.5-6
			c0-0.7,0.2-2.1,0.6-4.3c0.4-2.1,1.1-4.8,1.9-8.1c0.9-3.6,1.7-6.5,2.4-8.6c0.7-2.1,1.2-3.4,1.7-3.9c1.5-1.4,2.6-2.7,3.4-4
			c0.7-1.3,1.1-2.4,1.1-3.5c0-1.4-0.4-2.7-1.1-3.8c-0.7-1.1-1.8-1.9-3.2-2.5c-1.4-0.3-2.8-0.6-4.2-0.9c-1.4-0.3-2.8-0.6-4.2-1
			c-1.1,0.4-2.1,0.7-3,0.9c-0.9,0.2-1.6,0.4-2.3,0.5c-3.6,0.6-7,2.2-10.2,4.8c-3.3,2.6-6.4,6.3-9.3,10.9c-2.4,4-4.4,8.1-5.9,12.1
			c-1.5,4.1-2.5,8.1-3,12.2c-0.2,1.2-0.5,2.8-0.8,4.6c-0.3,1.8-0.8,4-1.4,6.5c0.5,1.6,0.9,3,1.3,4.3l-0.8,7.1c0,0.3,0.2,0.8,0.7,1.6
			s1.2,2,2.2,3.5c0.6,0.9,1.1,1.9,1.6,3.1c0.5,1.2,0.8,2.5,1.1,4c0.1,0.4,0.3,0.8,0.6,1.2c0.3,0.4,0.6,0.8,1,1
			c0.8,0.7,1.6,1.3,2.3,1.8c2.3,2.4,4.7,4.2,7.3,5.4c2.6,1.2,5.3,1.8,8.2,1.8c0.3,0,1.3-0.1,3-0.4c1.7-0.3,4.1-0.7,7.1-1.2
			c0.5-0.4,1.2-0.7,2.1-1.1c0.9-0.4,1.9-0.7,3.1-1.2c1.1-1,2.1-1.8,3.2-2.2c1.1-0.4,2-0.7,2.9-0.7c0.3-0.4,0.6-0.8,1-1.3
			s0.9-1.1,1.5-1.7c1.6-0.6,3-1.4,4.4-2.4c1.3-1,2.6-2.2,3.8-3.5C235.9,122.6,237,125,237,125.2z"/>
		<path class="st5" d="M233.7,118.1c0.4-0.4,0.8-0.8,1.2-1.4c0.4-0.6,0.9-1.3,1.4-2l6.1-4.1c0.7-0.9,1.9-2,3.4-3.4
			c1.5-1.4,3.4-3,5.7-5c0.3-0.6,0.7-1.2,1.3-2c0.6-0.7,1.3-1.5,2.2-2.2c0.7-0.7,1.5-1.3,2.2-1.9c0.7-0.6,1.4-1.2,2.1-1.7
			c0.8-0.8,1.5-1.6,2.3-2.3c0.7-0.8,1.4-1.5,2.2-2.2c0.8-0.7,1.7-1.3,2.6-1.7c0.9-0.4,1.9-0.6,2.9-0.6c1.2,0,2.1,0.1,2.7,0.4
			c0.6,0.3,0.9,0.7,1,1.2c-0.5,1.2-1.1,2.4-1.7,3.6l0.5,0.7c2.3-0.9,4.2-1.5,5.5-1.9c1.3-0.4,2.2-0.6,2.5-0.6c3.9,0,6.8,1.2,8.7,3.5
			c1.9,2.3,2.9,5.8,2.9,10.4c0,0.9-0.1,1.9-0.3,3.1c-0.2,1.2-0.6,2.5-1,3.9c-0.5,1.6-1.1,2.8-1.7,3.9c-0.6,1-1.2,1.8-1.7,2.2
			c0.2,0.7,0.4,1.2,0.7,1.4c0.3,0.3,0.6,0.4,1,0.4c0.4,0,0.9-0.1,1.3-0.4c0.4-0.3,1-0.6,1.6-1.2c0.5,1.1,1,2.3,1.5,3.5
			c0.5,1.2,1,2.4,1.5,3.6c-1,0.8-1.9,1.6-2.8,2.4c-0.9,0.8-1.9,1.5-2.9,2.2c-1.2,1-2.4,1.7-3.5,2.1c-1.1,0.4-2.2,0.7-3.2,0.7
			c-1.2,0-2.2-0.3-3-0.9c-0.8-0.6-1.4-1.4-1.9-2.4c-1.3,1.7-2.9,3.3-4.8,4.7c-1.9,1.4-4,2.6-6.2,3.5c-1.3,0.6-2.5,1.1-3.6,1.4
			c-1.1,0.3-2.1,0.5-3,0.5c-0.3,0-0.8,0.1-1.5,0.3c-0.8,0.2-1.4,0.3-1.9,0.3c-3,0-5.7-1.2-8.2-3.7c-2.4-2.5-3.7-5.2-3.7-8.3
			c0-1.2,0.3-2.9,0.9-4.9c0.6-2,0.9-3.2,0.9-3.6c0-0.4-0.1-0.7-0.4-0.9c-0.2-0.2-0.6-0.3-1-0.3c-0.3,0-0.9,0.4-1.9,1.2
			c-1,0.8-2.4,1.9-4.3,3.3c-0.2,0.2-0.3,0.5-0.6,0.9c-0.2,0.4-0.6,0.9-1,1.4c-0.4-1.2-0.9-2.4-1.4-3.6
			C235,120.4,234.4,119.2,233.7,118.1z M272,103.9c-0.3,0.1-0.6,0.3-1.2,0.8c-0.5,0.5-1,1.1-1.5,1.8c-0.7,1.2-1.6,2.5-2.5,3.9
			c-0.6,0.6-1.2,1.1-1.9,1.4c-0.7,0.3-1.4,0.6-2.3,0.7c-0.5,0.1-1.1,0.6-1.7,1.5c-0.6,1-1.2,2.3-1.7,4.2c-0.6,1.6-1,3-1.3,4.1
			c-0.3,1.1-0.4,2.1-0.4,2.9c0,1.4,0.4,2.5,1.1,3.3c0.7,0.7,1.9,1.1,3.4,1.1c2.4,0,4.7-0.7,6.7-2c2-1.3,4-3.3,5.8-5.9
			c0.8-1,1.6-1.9,2.4-2.8c0.4-0.3,0.8-0.8,1-1.5c0.3-0.7,0.5-1.6,0.8-2.6l1.4-4.4c-0.5-1.6-0.9-2.8-1.4-3.7
			c-0.4-0.9-0.8-1.5-1.3-1.7c-0.3-0.2-0.8-0.3-1.7-0.5C275,104.3,273.7,104.1,272,103.9z"/>
		<path class="st5" d="M291.2,118.1c0.2-0.4,0.5-0.8,0.8-1.2c0.3-0.4,0.8-1,1.2-1.6c0.5-0.4,1.2-1,2.1-1.8c0.8-0.8,1.8-1.7,2.9-2.7
			c1-1,2.1-2.3,3.5-3.8c1.4-1.5,3-3.4,5-5.5c0.8-0.9,1.9-2,3.2-3.4c1.3-1.4,2.8-3,4.5-4.9c1.5-1.7,3.1-3,4.8-3.8
			c1.7-0.8,3.5-1.2,5.4-1.2c1.9,0,3.3,0.6,4.2,1.7c0.9,1.2,1.4,2.9,1.4,5.1c0,1.2-0.5,3.5-1.4,6.8c-0.9,3.4-2.3,7.8-4.2,13.3
			c-0.5,1-0.9,2-1.4,2.9c-0.3,0.7-0.5,1.3-0.6,1.8c-0.1,0.5-0.2,0.9-0.2,1.2c0,0.3,0.2,0.7,0.6,1.2c0.3-0.2,0.5-0.4,0.8-0.6
			c0.2-0.3,0.5-0.6,0.8-0.9c0.4-0.8,1.1-1.6,1.9-2.4c0.9-0.9,1.9-1.8,3.1-2.8c0.5-0.9,1.1-1.7,1.9-2.6c0.8-0.9,1.6-1.6,2.6-2.4
			c0.2-0.2,0.5-0.5,0.8-1c0.3-0.5,0.8-1,1.2-1.5c0.7-0.7,1.5-1.4,2.5-2.1c1-0.7,2.1-1.5,3.3-2.2c1.4-0.7,2.7-1.3,3.9-1.7
			c1.1-0.4,2.1-0.6,3-0.6c1.6,0,3.1,0.4,4.4,1.2c1.3,0.8,2.4,2,3.3,3.6c1.1,3.2,2.1,6.2,3,8.9c0.6,1.6,1.2,2.8,1.9,3.6
			c0.7,0.8,1.5,1.2,2.4,1.2c0.7,0,1.3-0.1,1.9-0.4c0.6-0.3,1.1-0.6,1.5-1.2l3.2,7.1c-0.9,0.7-1.8,1.5-2.8,2.2
			c-1,0.8-1.9,1.5-2.8,2.2c-1.2,1.1-2.4,1.8-3.4,2.3c-1.1,0.4-2.1,0.7-3.2,0.7c-1.2,0-2.4-0.3-3.5-0.8s-2.1-1.3-2.9-2.3
			c-0.4-0.4-1-1.2-1.6-2.3c-0.6-1.1-1.4-2.5-2.2-4.2c-0.7-0.7-1.5-1.6-2.3-2.7c-0.9-1.1-1.9-2.4-3.1-3.9l-0.7-0.2
			c-1,0.3-2,0.8-3,1.4c-1,0.6-2,1.4-3.1,2.4c-2.4,2.1-4.1,3.4-5.2,3.9c-1.1,0.5-1.8,1.1-2.1,1.8c-0.7,1.2-2,2.8-3.8,4.8
			c-1.8,2-4,4.3-6.7,7c-0.7,0.7-1.4,1.3-2.1,2c-0.7,0.6-1.4,1.3-2.1,1.9c-0.7,0.6-1.5,1-2.3,1.2c-0.9,0.2-1.8,0.3-2.9,0.3
			c-2.1,0-3.3-0.7-3.5-2.1c-0.2-1.4-0.4-2.9-0.5-4.3c0.8-2.2,1.7-4.9,2.7-8.1c1-3.3,2.2-7.1,3.5-11.4c0-0.3,0.1-0.6,0.3-1
			c0.2-0.4,0.4-1,0.7-1.7c0.3-0.7,0.4-1.3,0.6-1.7c0.1-0.5,0.2-0.9,0.2-1.3c0-0.4-0.1-0.6-0.4-0.9c-0.3-0.2-0.7-0.3-1.3-0.3
			c-0.5,0-1.2,0.3-2.1,0.9c-0.9,0.6-1.9,1.6-3.1,2.9c-1.5,1.6-2.7,2.8-3.6,3.6c-0.9,0.9-1.5,1.4-1.8,1.6c-0.5,0.4-1.2,0.9-1.9,1.6
			c-0.7,0.7-1.5,1.4-2.4,2.2c-0.1,0.2-0.3,0.5-0.5,0.9c-0.2,0.4-0.6,0.9-1,1.4c-0.2-0.8-0.6-1.7-1.1-2.9
			C292.7,121.2,292.1,119.8,291.2,118.1z"/>
		<path class="st5" d="M367.2,118.1l0.3-0.6c0.3-0.4,0.7-0.9,1.2-1.6c0.5-0.6,1.1-1.3,1.8-2.2c3.8-3.4,7.4-7.5,11-12.2
			c3.6-4.7,7.1-10.2,10.6-16.3c0.4-0.6,0.9-1.3,1.4-2.2c0.5-0.9,1.1-2.1,1.7-3.5c0-0.3-0.1-0.5-0.2-0.7c-0.2-0.2-0.4-0.2-0.8-0.2
			c-0.3,0-0.8,0.1-1.5,0.3c-0.7,0.2-1.3,0.3-1.6,0.3h-9.9c-0.4,0-1.1,0-2.1-0.1c-1-0.1-1.7-0.1-2.1-0.1c-0.5-0.3-1-0.5-1.5-0.7
			c-0.5-0.2-0.9-0.4-1.3-0.6c-0.6-0.2-1.1-0.5-1.5-0.8c-0.3-0.3-0.5-0.7-0.5-1.2c0-3.3,0.4-5.8,1.1-7.6c0.7-1.8,1.8-2.6,3.3-2.6
			c1.5,0,2.9,0.1,4.2,0.2c1.3,0.1,2.5,0.3,3.5,0.5c0.8-0.2,1.5-0.3,2.2-0.5c1.4,0,2.6,0.1,3.7,0.2c1,0.1,1.8,0.2,2.3,0.4
			c0.7-0.2,1.4-0.3,2-0.4c0.7-0.1,1.4-0.3,2.2-0.4l2.6,0.8c1.9-0.2,3.8-2.7,5.9-7.6c2.1-4.9,4.3-7.3,6.7-7.3c1.3,0,2.3,0.4,2.9,1.2
			c0.7,0.8,1,1.9,1,3.4c0,1.2-0.4,2.8-1.1,4.7c-0.7,1.9-1.1,3.4-1.2,4.4c0.1,0.2,0.2,0.4,0.4,0.7c0.2,0.2,0.5,0.5,0.8,0.8
			c0.3,0.2,0.5,0.6,0.7,1c0.1,0.5,0.2,1.1,0.2,1.8c0,3.1-0.1,5.5-0.4,7.2c-0.3,1.7-0.8,2.5-1.4,2.6l-5.4,1.1
			c-0.1,0.5-0.2,1.2-0.4,1.9c-0.2,0.8-0.4,1.6-0.6,2.6c-0.9,2.6-1.9,5.9-3,9.9c-1.1,4-2.4,8.7-3.7,14.1c-0.9,4.3-1.5,7.9-2,10.6
			c-0.5,2.7-0.7,4.5-0.7,5.4c0,0.8,0.1,1.4,0.4,1.9c0.3,0.4,0.7,0.6,1.2,0.6c0.3,0,1.5-0.7,3.5-2.2c2-1.5,4.8-3.7,8.3-6.7l3.1,7.1
			c-0.5,0.6-1.3,1.2-2.2,2c-1,0.8-2.1,1.6-3.4,2.5c-0.5,0.6-1.2,1.2-2,1.9c-0.8,0.7-1.7,1.5-2.6,2.4c-1,1-1.9,2.1-2.8,3.1
			c-0.9,1-1.9,2-2.8,3c-1.3,1.3-2.5,2.3-3.7,2.9c-1.2,0.6-2.4,0.9-3.4,0.9c-2.3,0-4.1-0.7-5.2-2c-1.1-1.3-1.7-3.4-1.7-6.1
			c0-3,0.1-5.6,0.3-7.8c0.2-2.2,0.6-4,1-5.3c0.2-0.4,0.4-0.8,0.5-1.1c0-0.5,0.1-1.2,0.2-2.1c0.2-0.9,0.3-1.9,0.6-3.1
			c0.3-2,0.7-4,1-6.1c0.6-1.2,1.2-2.6,1.8-4c0-0.3-0.2-0.5-0.6-0.7l-0.8,0.5c-0.8,1.2-1.8,2.5-3.1,3.9c-1.3,1.4-2.8,2.8-4.5,4.3
			c-2.7,2.5-5.5,5.1-8.3,7.7c-0.2,0.3-0.5,0.6-0.9,1.2c-0.4,0.5-0.9,1.2-1.4,1.9c-0.3-0.6-0.6-1.4-1-2.4c-0.4-1-0.8-2.1-1.2-3.3
			c-0.1-0.3-0.2-0.6-0.4-0.9C367.6,118.5,367.4,118.3,367.2,118.1z"/>
		<path class="st5" d="M413.8,114.7l7.2-4.7c0.3-0.3,0.6-0.6,1-1c0.4-0.4,0.8-1.1,1.3-1.9c0.4-0.7,0.9-1.2,1.5-1.7
			c0.6-0.5,1.3-0.9,2.1-1.2c0.4-0.5,1-1.2,1.8-1.9c0.8-0.8,1.8-1.7,3-2.7c0.6-0.3,1.3-0.8,2.2-1.4c0.9-0.6,1.9-1.4,2.9-2.4
			c4.8-4.4,9-7.8,12.7-10c3.6-2.2,6.7-3.3,9.2-3.3c1.4,0,2.4,0.3,3.1,0.9c0.7,0.6,1,1.4,1,2.4c0,1.1-0.2,2-0.6,2.9
			c-0.4,0.8-1,1.5-1.9,2.1c-1.3,0.9-2.8,2-4.3,3.1c-0.8,1.1-1.9,2.2-3.1,3.5c-1.2,1.2-2.7,2.4-4.3,3.6c-0.5,0.7-1,1.3-1.4,1.8
			c-0.3,0.3-0.8,0.7-1.5,1.4c-0.7,0.7-1.7,1.4-2.9,2.3c-0.5,1.1-1.7,2.6-3.5,4.4c-1.8,1.8-4.1,4-7.1,6.5c-0.4,0.4-1,1.2-2,2.5
			c-1,1.3-2.2,3-3.7,5.1l0.6,0.7c1.2-0.4,2.4-1,3.7-1.9c1.3-0.9,2.7-2,4.2-3.5c1.8-1.6,3.3-2.9,4.4-3.9c1.1-1,1.9-1.7,2.4-2
			c0.4-0.2,0.7-0.4,1.1-0.6c0.4-0.2,0.8-0.5,1.3-0.8c2.4-2.8,4.7-5,6.8-6.3c2.1-1.4,4.1-2.1,5.9-2.1c1.1,0,2,0.4,2.5,1.3
			c0.6,0.9,0.9,2.1,1,3.8c-0.1,2.6-0.2,5.1-0.2,7.4c-0.1,1.7,0.4,3.1,1.4,4.5c1,1.3,2.3,2,3.9,2c0.5,0,0.9-0.1,1.4-0.4
			c0.4-0.3,0.9-0.6,1.4-1c0.4-0.5,0.7-0.9,1.1-1.3c0.3-0.4,0.7-0.8,1.1-1.2c0.2-0.1,0.5-0.3,0.9-0.5c0.4-0.3,0.8-0.6,1.2-0.9
			c0.7,1.6,1.4,2.9,1.9,4.1c0.5,1.2,0.9,2.2,1.2,3.1c-1.2,1.1-2.4,2.2-3.6,3.4c-1.2,1.2-2.5,2.3-3.8,3.3c-1.6,1.2-3.1,2.1-4.6,2.7
			c-1.5,0.6-3,0.9-4.5,0.9c-3.4,0-6.1-1-7.9-2.9c-1.9-1.9-2.9-4.8-3.3-8.7c0-0.5-0.1-0.9-0.2-1.4c-0.1-0.5-0.4-1-0.8-1.5
			c-0.3,0.3-0.6,0.5-0.9,0.8c-0.3,0.3-0.7,0.7-1.1,1.1c-0.7,0.5-1.5,1.2-2.6,1.9c-1,0.8-2.2,1.7-3.6,2.8c-1.9,1.9-3.4,3.4-4.7,4.6
			c-1.3,1.2-2.2,2-2.7,2.6c-1.1,0.9-2.3,1.8-3.7,2.6c-1.4,0.9-3,1.8-4.7,2.7c-1.1,0.6-2.1,1-2.9,1.4c-0.8,0.3-1.4,0.5-1.7,0.5
			c-2.5,0-4.4-0.6-5.6-1.8c-1.2-1.2-1.8-3.1-1.8-5.6c0-1.4,0.3-2.7,0.9-4c0.6-1.3,1.5-2.5,2.7-3.7c0.1-0.7,0.2-1.2,0.2-1.6
			c0-0.3-0.1-0.5-0.2-0.8c-0.1-0.3-0.3-0.6-0.5-1c-0.3-0.7-0.7-1.5-1.1-2.4c-0.4-0.9-0.8-1.9-1.3-2.9c0.2-0.2,0.5-0.6,0.9-1.2
			C412.8,116.3,413.2,115.6,413.8,114.7z"/>
		<path class="st5" d="M472.3,118.1l0.5-0.5l0.2-0.8c1.4-1.9,3.9-4.4,7.6-7.5c3.6-3.1,6.1-5.6,7.5-7.5c0.5-0.8,1.1-1.4,1.8-1.8
			c0.7-0.4,1.4-0.5,2.1-0.5c1.9,0,3.4,0.5,4.7,1.4c1.3,0.9,2.1,2.3,2.5,4.1c0.4,1.6,0.7,3.2,1,4.8c0.3,1.6,0.6,3.3,0.8,4.9
			c0.4,1,0.8,2.6,1.4,4.7c0.5,2.1,0.9,3.3,1.2,3.6c0.3,0.5,0.7,0.9,1.2,1.1c0.5,0.2,1.2,0.3,2,0.3c1,0,1.9-0.2,2.9-0.5
			c1-0.3,2-0.9,3.1-1.7c0.8-0.7,1.6-1.4,2.5-2.1c0.9-0.7,1.7-1.4,2.6-2.1l3.2,7.1c-0.8,0.8-2,1.8-3.4,2.8c-1.4,1.1-3.1,2.3-5,3.7
			c-2.2,1.6-4,2.7-5.6,3.5c-1.5,0.8-2.7,1.1-3.5,1.1c-4.8,0-7.9-0.5-9.4-1.6c-1.4-1.1-3-4.1-4.8-9.1c-0.2-0.4-0.5-0.9-1-1.5
			c-0.4-0.6-0.9-1.2-1.4-2c-0.6-1.2-1.2-2.1-1.7-2.7c-0.5-0.6-0.9-0.9-1.2-0.9c-0.8,0-2,0.6-3.4,1.7c-1.4,1.1-3.2,2.8-5.2,5
			c-0.3-0.7-0.6-1.5-1-2.4c-0.4-0.9-0.8-2-1.2-3.3c-0.1-0.3-0.2-0.6-0.4-0.9C472.7,118.5,472.5,118.3,472.3,118.1z M505.5,56.9
			c1.3,0,2.3,0.3,2.9,0.8c0.6,0.5,0.9,1.3,0.9,2.2c-0.3,1.4-0.6,2.7-0.8,3.6c-0.5,1.9-1,3.4-1.4,4.6c-0.4,1.2-0.7,2-0.9,2.6
			c-0.5,1.1-1.1,2.1-1.9,3c-0.8,0.9-1.8,1.6-3,2.3c-1.2,0.8-2.2,1.4-3.1,1.7c-0.8,0.3-1.4,0.5-1.7,0.4c-0.9-0.1-1.8-0.2-2.6-0.3
			c-0.8-0.1-1.6-0.1-2.4-0.1c-0.7-0.4-1.2-1.1-1.6-2.1c-0.4-1-0.6-2.4-0.6-4.2c0-1.6,1-3.5,2.9-5.9c1.9-2.4,3.6-3.6,5.1-3.8
			c0.9-1.1,2-2.3,3.2-3.7c0.5-0.4,1.2-0.7,2.1-0.9C503.5,57,504.4,56.9,505.5,56.9z"/>
		<path class="st5" d="M517.8,118.1c0.2-0.4,0.5-0.8,0.8-1.2c0.3-0.4,0.8-1,1.2-1.6c0.5-0.4,1.2-1,2.1-1.8c0.8-0.8,1.8-1.7,2.9-2.7
			c1-1,2.1-2.3,3.5-3.8c1.4-1.5,3-3.4,5-5.5c0.8-0.9,1.9-2,3.2-3.4c1.3-1.4,2.8-3,4.5-4.9c1.5-1.7,3.1-3,4.8-3.8
			c1.7-0.8,3.5-1.2,5.4-1.2c1.9,0,3.3,0.6,4.2,1.7c0.9,1.2,1.4,2.9,1.4,5.1c0,1.2-0.5,3.5-1.4,6.8c-0.9,3.4-2.3,7.8-4.2,13.3
			c-0.5,1-0.9,2-1.4,2.9c-0.3,0.7-0.5,1.3-0.6,1.8c-0.1,0.5-0.2,0.9-0.2,1.2c0,0.3,0.2,0.7,0.6,1.2c0.3-0.2,0.5-0.4,0.8-0.6
			c0.2-0.3,0.5-0.6,0.8-0.9c0.4-0.8,1.1-1.6,1.9-2.4c0.9-0.9,1.9-1.8,3.1-2.8c0.5-0.9,1.1-1.7,1.9-2.6c0.8-0.9,1.6-1.6,2.6-2.4
			c0.2-0.2,0.5-0.5,0.8-1c0.3-0.5,0.8-1,1.2-1.5c0.7-0.7,1.5-1.4,2.5-2.1c1-0.7,2.1-1.5,3.3-2.2c1.4-0.7,2.7-1.3,3.9-1.7
			c1.1-0.4,2.1-0.6,3-0.6c1.6,0,3.1,0.4,4.4,1.2c1.3,0.8,2.4,2,3.3,3.6c1.1,3.2,2.1,6.2,3,8.9c0.6,1.6,1.2,2.8,1.9,3.6
			c0.7,0.8,1.5,1.2,2.4,1.2c0.7,0,1.3-0.1,1.9-0.4c0.6-0.3,1.1-0.6,1.5-1.2l3.2,7.1c-0.9,0.7-1.8,1.5-2.8,2.2
			c-1,0.8-1.9,1.5-2.8,2.2c-1.2,1.1-2.4,1.8-3.4,2.3c-1.1,0.4-2.1,0.7-3.2,0.7c-1.2,0-2.4-0.3-3.5-0.8s-2.1-1.3-2.9-2.3
			c-0.4-0.4-1-1.2-1.6-2.3c-0.6-1.1-1.4-2.5-2.2-4.2c-0.7-0.7-1.5-1.6-2.3-2.7c-0.9-1.1-1.9-2.4-3.1-3.9l-0.7-0.2
			c-1,0.3-2,0.8-3,1.4c-1,0.6-2,1.4-3.1,2.4c-2.4,2.1-4.1,3.4-5.2,3.9c-1.1,0.5-1.8,1.1-2.1,1.8c-0.7,1.2-2,2.8-3.8,4.8
			c-1.8,2-4,4.3-6.7,7c-0.7,0.7-1.4,1.3-2.1,2c-0.7,0.6-1.4,1.3-2.1,1.9c-0.7,0.6-1.5,1-2.3,1.2c-0.9,0.2-1.8,0.3-2.9,0.3
			c-2.1,0-3.3-0.7-3.5-2.1c-0.2-1.4-0.4-2.9-0.5-4.3c0.8-2.2,1.7-4.9,2.7-8.1c1-3.3,2.2-7.1,3.5-11.4c0-0.3,0.1-0.6,0.3-1
			s0.4-1,0.7-1.7c0.3-0.7,0.4-1.3,0.5-1.7c0.1-0.5,0.2-0.9,0.2-1.3c0-0.4-0.1-0.6-0.4-0.9c-0.3-0.2-0.7-0.3-1.3-0.3
			c-0.5,0-1.2,0.3-2.1,0.9c-0.9,0.6-1.9,1.6-3.1,2.9c-1.5,1.6-2.7,2.8-3.6,3.6c-0.9,0.9-1.5,1.4-1.8,1.6c-0.5,0.4-1.2,0.9-1.9,1.6
			c-0.7,0.7-1.5,1.4-2.4,2.2c-0.1,0.2-0.3,0.5-0.5,0.9c-0.2,0.4-0.6,0.9-1,1.4c-0.2-0.8-0.6-1.7-1.1-2.9
			C519.3,121.2,518.6,119.8,517.8,118.1z"/>
		<path class="st5" d="M593.8,118.1c0.6-1.1,1.5-2.2,2.5-3.3c1-1.1,2.3-2.3,3.8-3.5c0.2-1,0.3-2.1,0.5-3.1c0.2-1,0.3-2,0.3-3.1
			c0.2-0.7,0.4-1.6,0.8-2.6c0.3-1,0.7-2,1.2-3.2c0.5-1.1,1.1-2.6,1.9-4.3s1.9-3.6,3.2-5.7c1.1-1.2,2.3-2.5,3.5-3.9
			c1.2-1.4,2.4-2.9,3.7-4.3c0.6-0.5,1.2-0.9,1.9-1.3c0.7-0.4,1.4-0.9,2.1-1.4c0.6-0.2,1.4-0.4,2.1-0.5c0.8-0.2,1.7-0.2,2.6-0.2
			c1.3,0,2.4,0.1,3.2,0.4c0.8,0.3,1.5,0.7,2,1.3c0.4,0.4,0.7,1,1.1,1.9c0.3,0.8,0.7,1.8,1,3c0.2,1,0.3,2.2,0.6,3.4
			c0-0.3-0.1-0.2-0.3,0.4c-0.2,0.6-0.5,1.5-0.8,2.7l-0.7,2.5c-0.7,2.5-2.4,5.4-5,8.6c-2.6,3.3-6.1,7-10.5,11.2
			c-0.4,0.4-0.7,0.8-1,1.4c-0.3,0.5-0.4,1.1-0.4,1.7c0,1.1,0.2,2,0.6,2.9c0.4,0.8,1,1.4,1.7,1.9c0.4,0.3,1.1,0.6,2,0.9
			c0.9,0.3,2,0.6,3.3,0.9c2.1-0.2,3.9-0.5,5.6-1c1.7-0.5,3.2-1.1,4.5-1.9c0.3-0.2,0.7-0.4,1.3-0.7c0.6-0.3,1.2-0.7,1.7-1.1
			c0.7,1.5,1.3,2.8,1.8,4c0.5,1.2,1,2.2,1.3,3.1c-3,2.9-5.8,5.1-8.2,6.6c-2.5,1.5-4.7,2.2-6.8,2.2c-0.8,0.5-1.8,0.9-2.9,1.1
			c-1.1,0.2-2.4,0.3-3.9,0.3c-2,0-3.7-0.3-5.2-0.9c-1.5-0.6-2.8-1.4-3.8-2.5c-0.5-0.5-1.1-1.3-1.6-2.3c-0.5-1-1.1-2.2-1.7-3.6
			c-0.5-1.1-0.9-2-1.4-2.5c-0.4-0.5-0.9-0.8-1.4-0.8c-0.4,0-0.9,0.2-1.4,0.6c-0.5,0.4-1.1,1-1.7,1.7c-0.2-0.8-0.6-1.7-1.1-2.9
			C595.3,121.2,594.6,119.8,593.8,118.1z M619.2,92.9c-1.2,0-2.7,1.5-4.7,4.5c-2,3-2.9,5.2-2.9,6.6c0,0.3,0.1,0.5,0.2,0.7
			c0.1,0.1,0.4,0.2,0.8,0.2c0.6,0,1.1-0.3,1.4-0.9c0.4-0.6,0.7-1.2,1-1.7c0.6-0.5,1.2-1.1,1.7-1.7c0.6-0.6,1.1-1.2,1.6-1.7
			c0.6-0.7,1.1-1.4,1.4-2.2c0.3-0.7,0.5-1.4,0.5-2.2c0-0.5-0.1-0.8-0.3-1.1C619.8,93,619.6,92.9,619.2,92.9z"/>
		<path class="st5" d="M633.7,118.1c0.8-1.1,1.7-2.2,2.5-3.4c3.9-3.1,7-6.1,9.5-9c2.5-2.9,4.3-5.5,5.4-8l-0.8-3.7
			c0.7-1.3,2.4-2.8,5.1-4.6c2.7-1.8,4.9-2.6,6.6-2.6c1.8,0,3.3,0.5,4.6,1.6c1.2,1,2.5,2.1,3.6,3.3c0.6,0.4,1,0.6,1.3,0.9
			c2.1,1.6,3.7,3.7,4.8,6.4c1.1,2.7,1.6,6.1,1.6,10c0,2.1-0.8,5-2.5,8.9c-1.6,3.9-2.5,6.8-2.5,8.7c0,0.3,0.1,0.5,0.3,0.6
			c0.2,0.2,0.4,0.2,0.8,0.2c0.7,0,1.5-0.3,2.5-0.9c1-0.6,2-1.4,3.1-2.4c2.8-2.7,4.5-4.2,5.1-4.5c0.6-0.3,1.3-0.8,2.1-1.4
			c0.4,1,0.9,2.1,1.5,3.3c0.6,1.2,1.1,2.5,1.7,3.8c-0.5,0.4-1,0.9-1.6,1.5c-0.6,0.6-1.3,1.2-2.2,1.9c-1.8,1.3-4.1,2.9-7,4.7
			c-2.9,1.8-6.3,3.9-10.4,6.3c-1.1,0.7-2.3,1.2-3.7,1.6c-2.2,0-3.9-0.3-5-1c-1.1-0.6-1.7-1.7-1.7-3.1c0-0.6,0.1-1.2,0.4-2
			c0.2-0.7,0.6-1.6,1-2.4c0.3-0.7,0.7-1.4,1-2.1c0.4-0.7,0.7-1.4,1-2.1c1.2-3.3,2.1-6.3,2.7-9.1c0.6-2.8,0.9-5.3,0.9-7.5
			c0-2.7-0.4-4.8-1.3-6.3c-0.9-1.4-2.2-2.3-3.9-2.5c-1.2,0.6-2.4,1.5-3.8,2.6c-1.4,1.1-2.8,2.6-4.2,4.3c-1.5,1.9-2.9,3.4-4.1,4.6
			c-1.2,1.2-2.2,2-3,2.4c-0.5,0.8-1.2,1.7-2.3,2.6c-1.1,1-2.5,2-4.2,3.2c-0.1,0.2-0.3,0.5-0.5,0.9c-0.2,0.4-0.6,0.9-1,1.4
			c-0.4-1.2-0.9-2.4-1.4-3.5C635,120.5,634.4,119.3,633.7,118.1z"/>
	</g>
</g>
</svg>
