<?xml version="1.0" encoding="utf-8"?>
<!-- Generator: Adobe Illustrator 22.1.0, SVG Export Plug-In . SVG Version: 6.00 Build 0)  -->
<svg version="1.1" id="圖層_1" xmlns="http://www.w3.org/2000/svg" xmlns:xlink="http://www.w3.org/1999/xlink" x="0px" y="0px"
	 viewBox="0 0 693 335" style="enable-background:new 0 0 693 335;" xml:space="preserve">
<style type="text/css">
	.st0{fill:#545C56;}
	.st1{fill:none;stroke:#868686;stroke-width:3;stroke-linecap:round;stroke-linejoin:round;stroke-miterlimit:10;}
	.st2{fill:#BEA380;}
	.st3{fill:#333333;}
</style>
<g>
	<g>
		<g>
			<path class="st0" d="M276.5,319.2c-0.1,0.2-0.3,0.4-0.6,0.5s-0.6,0.2-0.9,0.2c-0.3,0-0.6,0-0.9-0.1s-0.5-0.3-0.6-0.5l-2.2-7.1
				c-0.1,0.5-0.3,1-0.4,1.5s-0.3,1-0.5,1.5s-0.3,0.9-0.4,1.4s-0.3,0.8-0.4,1c-0.2,0.6-0.4,1-0.5,1.3s-0.3,0.5-0.4,0.7
				s-0.3,0.2-0.4,0.3s-0.4,0.1-0.7,0.1c-0.2,0-0.3,0-0.5,0s-0.3-0.1-0.5-0.1s-0.3-0.1-0.4-0.2s-0.2-0.2-0.3-0.4l-4.5-12.8
				c-0.1-0.3-0.4-0.6-0.7-0.9s-0.6-0.6-0.8-0.8c-0.1-0.1-0.2-0.2-0.2-0.3s-0.1-0.2-0.1-0.3s0.1-0.2,0.2-0.3s0.2-0.1,0.4-0.1h5.5
				c0.4,0,0.5,0.2,0.5,0.6c0,0.2-0.2,0.4-0.7,0.6c-0.2,0.1-0.4,0.3-0.5,0.4s-0.1,0.3-0.1,0.5c0,0.1,0.1,0.4,0.2,0.9s0.3,1,0.5,1.6
				s0.4,1.3,0.7,2s0.5,1.4,0.7,2.1s0.4,1.2,0.6,1.7s0.3,0.8,0.4,1c0.2-0.3,0.4-0.8,0.6-1.3s0.4-1,0.6-1.6s0.4-1.1,0.6-1.7
				s0.4-1.1,0.5-1.6c-0.1-0.4-0.2-0.8-0.4-1.1s-0.2-0.8-0.4-1.2c-0.1-0.3-0.4-0.6-0.7-1s-0.7-0.7-1.1-1.1c-0.1,0-0.1-0.1-0.2-0.2
				s-0.1-0.1-0.1-0.2s0-0.2,0.1-0.3s0.2-0.2,0.4-0.4h5.7c0.4,0,0.6,0.2,0.6,0.6c0,0.1-0.2,0.3-0.7,0.6s-0.7,0.6-0.7,0.9
				c0,0,0,0.2,0.1,0.7s0.3,1,0.5,1.7s0.4,1.4,0.6,2.1s0.5,1.5,0.7,2.2s0.4,1.3,0.6,1.8s0.3,0.8,0.4,0.8c0.2-0.4,0.5-1,0.8-1.8
				s0.7-1.6,1-2.5s0.6-1.8,0.9-2.7s0.5-1.7,0.6-2.4c0-0.2,0-0.3-0.2-0.5s-0.3-0.3-0.4-0.4c-0.1-0.1-0.2-0.2-0.3-0.3
				s-0.1-0.3-0.1-0.4s0.1-0.2,0.2-0.3s0.3-0.1,0.5-0.1h3.4c0.2,0,0.3,0,0.4,0.1s0.2,0.2,0.2,0.3s0,0.2,0,0.3s-0.1,0.2-0.1,0.2
				c-0.4,0.3-0.7,0.6-1,0.8s-0.5,0.5-0.7,0.8L276.5,319.2z"/>
			<path class="st0" d="M289.2,311.9h3.4c0.3,0,0.4-0.1,0.4-0.4v-2.9c0-0.3-0.2-0.6-0.6-0.7c-0.4-0.1-0.6-0.3-0.6-0.5
				c0-0.3,0.2-0.5,0.5-0.5h4.4c0.3,0,0.5,0.2,0.5,0.5c0,0.2-0.2,0.4-0.6,0.5c-0.4,0.1-0.6,0.4-0.6,0.7v9.5c0,0.4,0.2,0.6,0.6,0.7
				c0.4,0.1,0.6,0.3,0.6,0.5c0,0.3-0.2,0.5-0.5,0.5h-4.4c-0.3,0-0.5-0.2-0.5-0.5c0-0.2,0.2-0.4,0.6-0.5c0.4-0.1,0.6-0.3,0.6-0.7
				v-4.5c0-0.2-0.1-0.3-0.4-0.4h-3.4c-0.3,0-0.4,0.1-0.4,0.4v4.5c0,0.3,0.2,0.6,0.6,0.7c0.4,0.1,0.6,0.3,0.6,0.5
				c0,0.3-0.2,0.5-0.5,0.5h-4.4c-0.3,0-0.5-0.2-0.5-0.5c0-0.2,0.2-0.4,0.6-0.5c0.4-0.1,0.6-0.3,0.6-0.7v-9.5c0-0.3-0.2-0.6-0.6-0.7
				c-0.4-0.1-0.6-0.3-0.6-0.5c0-0.3,0.2-0.5,0.5-0.5h4.4c0.3,0,0.5,0.2,0.5,0.5c0,0.2-0.2,0.4-0.6,0.5c-0.4,0.1-0.6,0.4-0.6,0.7v2.9
				C288.8,311.8,288.9,311.9,289.2,311.9z"/>
			<path class="st0" d="M299.6,319.9c-0.3,0-0.5-0.2-0.5-0.5c0-0.2,0.2-0.4,0.6-0.5c0.4-0.1,0.6-0.4,0.6-0.7v-9.5
				c0-0.3-0.2-0.6-0.6-0.7c-0.4-0.1-0.6-0.3-0.6-0.5c0-0.3,0.2-0.5,0.5-0.5h4.4c0.3,0,0.5,0.2,0.5,0.5c0,0.2-0.2,0.4-0.6,0.5
				c-0.4,0.1-0.6,0.4-0.6,0.7v9.5c0,0.3,0.2,0.6,0.6,0.7c0.4,0.1,0.6,0.3,0.6,0.5c0,0.3-0.2,0.5-0.5,0.5H299.6z"/>
			<path class="st0" d="M312.3,319.9c-1.9,0-3.3-0.7-4.3-2c-1-1.2-1.4-2.7-1.4-4.5c0-1.7,0.4-3.2,1.3-4.5c1-1.3,2.4-2,4.2-2
				c0.1,0,0.3,0,0.5,0s0.5,0.1,0.9,0.1c0.2,0,0.3,0.1,0.4,0.1s0.3,0,0.3,0c0,0,0.1,0,0.1-0.1s0.2-0.1,0.3-0.1s0.2-0.1,0.3-0.1
				s0.1,0,0.1,0c0.3,0,0.7,0.4,1,1.2c0.1,0.4,0.2,0.7,0.3,1s0.1,0.5,0.1,0.7c0,0.2-0.1,0.3-0.2,0.3s-0.3,0.1-0.5,0.1
				c-0.5-0.5-1.1-0.9-1.5-1.2c-0.3-0.2-0.6-0.3-0.9-0.4s-0.6-0.2-1-0.2c-1,0-1.7,0.6-2.2,1.8c-0.3,0.8-0.5,1.8-0.5,3.1
				c0,1.5,0.2,2.7,0.6,3.5c0.5,1.2,1.4,1.8,2.6,1.8c0.3,0,0.6-0.1,0.9-0.2s0.6-0.2,0.9-0.4c1-0.7,1.6-1,1.7-1c0.1,0,0.2,0,0.3,0.1
				s0.1,0.1,0.2,0.2s0.1,0.2,0.1,0.2s0,0.2,0,0.4s-0.2,0.4-0.5,0.7s-0.7,0.5-1.3,0.8C314,319.7,313.1,319.9,312.3,319.9z"/>
			<path class="st0" d="M323.3,311.9h3.4c0.3,0,0.4-0.1,0.4-0.4v-2.9c0-0.3-0.2-0.6-0.6-0.7c-0.4-0.1-0.6-0.3-0.6-0.5
				c0-0.3,0.2-0.5,0.5-0.5h4.4c0.3,0,0.5,0.2,0.5,0.5c0,0.2-0.2,0.4-0.6,0.5c-0.4,0.1-0.6,0.4-0.6,0.7v9.5c0,0.4,0.2,0.6,0.6,0.7
				c0.4,0.1,0.6,0.3,0.6,0.5c0,0.3-0.2,0.5-0.5,0.5h-4.4c-0.3,0-0.5-0.2-0.5-0.5c0-0.2,0.2-0.4,0.6-0.5c0.4-0.1,0.6-0.3,0.6-0.7
				v-4.5c0-0.2-0.1-0.3-0.4-0.4h-3.4c-0.3,0-0.4,0.1-0.4,0.4v4.5c0,0.3,0.2,0.6,0.6,0.7c0.4,0.1,0.6,0.3,0.6,0.5
				c0,0.3-0.2,0.5-0.5,0.5h-4.4c-0.3,0-0.5-0.2-0.5-0.5c0-0.2,0.2-0.4,0.6-0.5c0.4-0.1,0.6-0.3,0.6-0.7v-9.5c0-0.3-0.2-0.6-0.6-0.7
				c-0.4-0.1-0.6-0.3-0.6-0.5c0-0.3,0.2-0.5,0.5-0.5h4.4c0.3,0,0.5,0.2,0.5,0.5c0,0.2-0.2,0.4-0.6,0.5c-0.4,0.1-0.6,0.4-0.6,0.7v2.9
				C322.9,311.8,323,311.9,323.3,311.9z"/>
			<path class="st0" d="M345.7,311.9c0-1.2,0.2-2.3,0.5-3.3s0.9-1.9,1.5-2.6s1.5-1.3,2.5-1.7s2.1-0.6,3.4-0.6s2.4,0.2,3.4,0.6
				s1.8,1,2.5,1.7s1.2,1.6,1.5,2.6s0.5,2.1,0.5,3.3s-0.2,2.3-0.5,3.3s-0.9,1.9-1.5,2.6s-1.5,1.3-2.5,1.7s-2.1,0.6-3.4,0.6
				s-2.4-0.2-3.4-0.6s-1.8-1-2.5-1.7s-1.2-1.6-1.5-2.6S345.7,313.1,345.7,311.9z M357.9,311.8c0-0.8-0.1-1.5-0.2-2.3
				s-0.4-1.5-0.7-2.1s-0.8-1.1-1.3-1.5s-1.2-0.6-2-0.6c-0.8,0-1.5,0.2-2,0.6s-1,0.9-1.3,1.5s-0.6,1.3-0.7,2.1s-0.2,1.5-0.2,2.3
				c0,0.8,0.1,1.6,0.2,2.4s0.4,1.5,0.7,2.1s0.8,1.1,1.3,1.5s1.2,0.6,2,0.6c0.8,0,1.5-0.2,2-0.6s1-0.9,1.3-1.5s0.6-1.3,0.7-2.1
				S357.9,312.6,357.9,311.8L357.9,311.8z"/>
			<path class="st0" d="M374.2,308.7c0,0.6,0,1.2,0,2s0,1.5,0,2.3s0,1.6,0,2.4s0,1.5,0,2.2s0,1.2-0.1,1.6s-0.1,0.6-0.1,0.6
				c-0.1,0.1-0.2,0.1-0.3,0.2s-0.3,0.1-0.4,0.1s-0.3,0-0.4,0s-0.2-0.1-0.3-0.2c-1-1.4-2.1-2.8-3.2-4.3s-2.3-2.9-3.6-4.3l0,7.1
				c0,0.3,0.2,0.6,0.6,0.7c0.4,0.1,0.6,0.3,0.6,0.5c0,0.3-0.2,0.5-0.5,0.5h-3c-0.3,0-0.5-0.2-0.5-0.5c0-0.2,0.2-0.4,0.6-0.5
				c0.4-0.1,0.6-0.3,0.6-0.7v-9.5c0-0.3-0.2-0.6-0.6-0.7c-0.4-0.1-0.6-0.3-0.6-0.5c0-0.3,0.2-0.5,0.5-0.5h2.6c0.1,0,0.3,0.1,0.6,0.4
				s0.6,0.7,1,1.1s0.8,1,1.2,1.6s0.9,1.1,1.3,1.7s0.9,1.1,1.2,1.6s0.7,0.9,1,1.2c0,0,0-0.1,0-0.1s0-0.3,0-0.7s0-0.9,0-1.7
				s0-1.9,0-3.3c0-0.3-0.3-0.6-0.8-0.8c-0.3-0.1-0.4-0.2-0.4-0.4c0-0.3,0.2-0.5,0.5-0.5h3c0.3,0,0.5,0.2,0.5,0.5
				c0,0.2-0.2,0.4-0.6,0.5C374.4,308.1,374.2,308.3,374.2,308.7z"/>
			<path class="st0" d="M381.7,311.5c0.3,0.1,0.5,0.2,0.8,0.2c0.1,0,0.3,0,0.6,0s0.5,0,0.6,0c0.3,0,0.6,0.1,0.8,0.2s0.3,0.3,0.3,0.6
				s-0.1,0.5-0.3,0.6s-0.5,0.2-0.9,0.2c-0.3,0-0.6,0-0.8,0s-0.4,0-0.4,0c-0.1,0-0.3,0-0.5,0.1s-0.3,0.2-0.3,0.5v4.1
				c0,0.3,0.1,0.5,0.2,0.6s0.3,0.1,0.6,0.1c0.3,0,0.6,0,1,0s0.8,0,1.2,0c0.3,0,0.6-0.1,0.9-0.2s0.5-0.3,0.7-0.5
				c0.2-0.2,0.4-0.4,0.6-0.6s0.3-0.2,0.3-0.2c0.1,0,0.3,0,0.4,0.1s0.2,0.2,0.2,0.3c0,0.1,0,0.2-0.1,0.4s-0.1,0.4-0.2,0.6
				s-0.2,0.4-0.3,0.6s-0.2,0.4-0.3,0.5c-0.1,0.1-0.3,0.2-0.4,0.3s-0.3,0.1-0.3,0.1h-8.1c-0.2,0-0.3-0.1-0.4-0.2s-0.1-0.2-0.1-0.4
				c0-0.1,0.1-0.2,0.2-0.3s0.3-0.1,0.4-0.2s0.3-0.1,0.4-0.3s0.2-0.3,0.2-0.5v-9.5c0-0.2-0.1-0.3-0.2-0.4s-0.3-0.2-0.4-0.3
				s-0.3-0.2-0.4-0.2s-0.2-0.2-0.2-0.3c0-0.3,0.2-0.5,0.5-0.5h7.7c0.2,0,0.4,0.1,0.5,0.2s0.3,0.3,0.4,0.5s0.2,0.4,0.3,0.6
				s0.1,0.5,0.1,0.7c0,0,0,0.1-0.1,0.2s-0.1,0.1-0.2,0.2s-0.1,0.1-0.2,0.1s-0.2,0-0.3-0.1c-0.4-0.3-0.6-0.5-0.9-0.6
				s-0.4-0.3-0.7-0.3s-0.5-0.1-0.8-0.1s-0.8,0-1.3,0c-0.5,0-0.7,0.1-0.9,0.2s-0.2,0.3-0.2,0.5c0,0.6,0,1.1,0,1.4s0,0.6,0,0.8
				s0,0.3,0,0.4S381.7,311.5,381.7,311.5z"/>
			<path class="st0" d="M408.1,320.1c-0.2,0-0.4,0-0.7-0.1s-0.6-0.1-1-0.2s-0.6-0.1-0.9-0.2s-0.5-0.1-0.6,0
				c-0.2,0.1-0.4,0.2-0.6,0.4s-0.3,0.3-0.5,0.3c-0.2,0-0.4-0.2-0.6-0.5s-0.3-0.7-0.5-1.2s-0.2-0.9-0.3-1.3s-0.1-0.7-0.1-0.9
				c0-0.1,0-0.2,0.1-0.3s0.2-0.2,0.2-0.2s0.2-0.1,0.3-0.1s0.2,0,0.2,0.1c0.5,0.7,1.1,1.3,1.9,1.7s1.5,0.6,2.1,0.7s1.3-0.1,1.8-0.4
				s0.7-0.8,0.7-1.5c0-0.5-0.1-0.9-0.2-1.2s-0.4-0.7-0.7-0.9s-0.6-0.5-1-0.8s-0.8-0.5-1.2-0.8c-0.8-0.5-1.5-0.9-2-1.3
				s-1-0.8-1.3-1.2s-0.6-0.8-0.7-1.2s-0.2-0.9-0.2-1.4c0-0.6,0.1-1.1,0.4-1.6s0.6-0.9,1-1.3s0.9-0.6,1.5-0.8s1.2-0.3,1.9-0.3
				c0.2,0,0.4,0,0.6,0.1s0.5,0.1,0.8,0.1s0.5,0.1,0.8,0.2s0.5,0.1,0.7,0.1c0.1,0,0.2,0,0.2,0s0.1-0.1,0.2-0.2s0.1-0.1,0.2-0.2
				s0.1-0.1,0.2-0.2c0.2,0,0.4,0.1,0.6,0.5s0.4,0.7,0.5,1.2s0.3,0.9,0.4,1.3s0.1,0.7,0.1,0.8c0,0.5-0.2,0.7-0.6,0.7
				c-0.3-0.3-0.7-0.6-1-0.8s-0.6-0.5-0.9-0.7c-0.3-0.2-0.7-0.4-1.1-0.5s-0.9-0.2-1.3-0.2s-0.7,0.2-1,0.4s-0.4,0.6-0.4,1.2
				c0,0.3,0.1,0.5,0.3,0.8s0.5,0.5,0.9,0.8s0.7,0.5,1.2,0.8s0.8,0.5,1.2,0.8c0.5,0.3,1,0.7,1.4,1.1s0.9,0.8,1.3,1.3s0.7,1,0.9,1.5
				s0.3,1.1,0.3,1.7c0,1.4-0.5,2.5-1.5,3.3S409.8,320.1,408.1,320.1z"/>
			<path class="st0" d="M426.5,316.1c0,0.6-0.1,1.1-0.4,1.6s-0.7,0.9-1.2,1.3c-0.5,0.3-1,0.5-1.5,0.7s-1.2,0.2-1.8,0.2
				c-1.2,0-2.3-0.3-3.2-0.9c-1-0.7-1.6-1.7-1.6-2.8v-7.5c0-0.3-0.2-0.6-0.6-0.7c-0.4-0.1-0.6-0.3-0.6-0.5c0-0.3,0.2-0.5,0.5-0.5h4.4
				c0.3,0,0.5,0.2,0.5,0.5c0,0.2-0.2,0.4-0.6,0.5c-0.4,0.1-0.6,0.4-0.6,0.7v7.4c0,0.7,0.2,1.3,0.7,1.7s1,0.6,1.7,0.6
				c0.8,0,1.5-0.2,2-0.6s0.7-1,0.7-1.9v-7.2c0-0.3-0.2-0.6-0.6-0.7c-0.4-0.1-0.6-0.3-0.6-0.5c0-0.3,0.2-0.5,0.5-0.5h3
				c0.3,0,0.5,0.2,0.5,0.5c0,0.2-0.2,0.4-0.6,0.5c-0.4,0.1-0.6,0.4-0.6,0.9V316.1z"/>
			<path class="st0" d="M430.2,319.9c-0.3,0-0.5-0.2-0.5-0.5c0-0.2,0.2-0.4,0.6-0.5c0.4-0.1,0.6-0.4,0.6-0.7v-9.5
				c0-0.3-0.2-0.6-0.6-0.7c-0.4-0.1-0.6-0.3-0.6-0.5c0-0.3,0.2-0.5,0.5-0.5h4.4c0.3,0,0.5,0.2,0.5,0.5c0,0.2-0.2,0.4-0.6,0.5
				c-0.4,0.1-0.6,0.4-0.6,0.7v9.5c0,0.3,0.2,0.6,0.6,0.7c0.4,0.1,0.6,0.3,0.6,0.5c0,0.3-0.2,0.5-0.5,0.5H430.2z"/>
			<path class="st0" d="M447.4,309.7c-0.3-0.2-0.4-0.3-0.6-0.4s-0.3-0.3-0.5-0.5c-0.1-0.1-0.3-0.3-0.7-0.3s-0.7-0.1-1.2-0.1
				c-0.4,0-0.6,0.2-0.6,0.5v9.4c0,0.3,0.2,0.6,0.6,0.7c0.4,0.1,0.6,0.3,0.6,0.5c0,0.3-0.2,0.5-0.5,0.5h-4.3c-0.3,0-0.5-0.2-0.5-0.5
				c0-0.3,0.1-0.4,0.4-0.4c0.5-0.1,0.8-0.5,0.8-1l0-9.2c0-0.2,0-0.3-0.1-0.4s-0.2-0.1-0.4-0.1c-0.3,0-0.5,0-0.7,0s-0.4,0-0.6,0
				s-0.3,0.1-0.5,0.2s-0.3,0.3-0.5,0.5c-0.4,0.5-0.7,0.8-0.9,0.8c-0.3,0-0.5-0.1-0.5-0.4c0-0.3,0.1-0.6,0.4-1.1
				c0.2-0.4,0.4-0.7,0.5-0.9s0.4-0.4,0.7-0.4c1.3,0,2.5,0,3.4,0s1.6,0,2.2,0s1,0,1.3,0s0.5,0,0.6,0s0.2,0,0.3,0s0.1,0,0.2,0
				c0.4,0,0.7,0.3,1,0.7s0.5,1,0.7,1.7c0,0,0,0.1,0,0.2s-0.1,0.1-0.2,0.2s-0.1,0.1-0.2,0.1S447.5,309.7,447.4,309.7z"/>
			<path class="st0" d="M454.2,320c-0.1,0-0.3,0-0.6-0.1s-0.5-0.1-0.8-0.2s-0.5-0.1-0.8-0.2s-0.4,0-0.5,0c-0.2,0-0.3,0.1-0.4,0.3
				s-0.2,0.2-0.4,0.2c-0.2,0-0.4-0.1-0.5-0.4s-0.3-0.6-0.4-0.9s-0.2-0.7-0.2-1s-0.1-0.6-0.1-0.7c0-0.1,0-0.2,0.1-0.2
				s0.1-0.1,0.2-0.2s0.2-0.1,0.2-0.1s0.1,0,0.2,0.1c0.4,0.6,0.9,1,1.5,1.3s1.2,0.5,1.7,0.6s1,0,1.4-0.3s0.6-0.6,0.6-1.2
				c0-0.4-0.1-0.7-0.2-1s-0.3-0.5-0.5-0.8s-0.5-0.4-0.8-0.6s-0.6-0.4-1-0.6c-0.6-0.4-1.2-0.7-1.6-1.1s-0.8-0.6-1-0.9
				s-0.5-0.6-0.6-0.9s-0.2-0.7-0.2-1.1c0-0.5,0.1-0.9,0.3-1.3s0.4-0.7,0.8-1s0.7-0.5,1.2-0.7s1-0.2,1.5-0.2c0.1,0,0.3,0,0.5,0
				s0.4,0.1,0.6,0.1s0.4,0.1,0.6,0.1s0.4,0.1,0.6,0.1c0.1,0,0.1,0,0.2,0s0.1-0.1,0.2-0.2s0.1-0.1,0.2-0.2s0.1-0.1,0.2-0.1
				c0.2,0,0.3,0.1,0.5,0.4s0.3,0.6,0.4,0.9s0.2,0.7,0.3,1s0.1,0.5,0.1,0.6c0,0.4-0.2,0.5-0.5,0.5c-0.3-0.2-0.5-0.5-0.8-0.7
				s-0.5-0.4-0.8-0.6c-0.3-0.2-0.6-0.3-0.9-0.4s-0.7-0.2-1-0.1s-0.6,0.1-0.8,0.3s-0.3,0.5-0.3,0.9c0,0.2,0.1,0.4,0.3,0.6
				s0.4,0.4,0.7,0.6s0.6,0.4,0.9,0.6s0.7,0.4,1,0.6c0.4,0.3,0.8,0.5,1.1,0.9s0.7,0.7,1,1s0.5,0.8,0.7,1.2s0.3,0.9,0.3,1.3
				c0,1.2-0.4,2-1.2,2.6S455.6,320,454.2,320z"/>
			<path class="st0" d="M486,306.3c0,0-0.1,0.1-0.2,0.5s-0.4,0.8-0.6,1.3s-0.5,1.1-0.8,1.8s-0.6,1.2-0.8,1.8s-0.5,1-0.6,1.4
				s-0.2,0.5-0.2,0.5v4.2c0,0.5,0.2,0.8,0.6,0.9c0.6,0.2,0.9,0.4,0.9,0.7c0,0.4-0.3,0.6-0.8,0.6h-5c-0.6,0-0.8-0.2-0.8-0.6
				c0-0.2,0.3-0.4,0.9-0.6c0.4-0.1,0.6-0.4,0.6-0.9v-4.2c-0.6-1.2-1.2-2.4-1.9-3.6s-1.4-2.4-1.9-3.6c0-0.1-0.2-0.3-0.4-0.5
				s-0.4-0.4-0.7-0.7s-0.5-0.4-0.7-0.6s-0.3-0.3-0.3-0.4c-0.1-0.2,0-0.3,0.1-0.4s0.4-0.2,0.6-0.2h5.7c0.5,0,0.8,0.2,0.8,0.6
				c0,0.3-0.3,0.5-0.8,0.6c-0.3,0.1-0.5,0.3-0.5,0.7c0,0.2,0.1,0.5,0.3,1s0.4,1.1,0.7,1.6s0.5,1.1,0.8,1.7s0.4,0.9,0.5,1.1
				c0.1-0.2,0.3-0.6,0.6-1.1s0.5-1,0.8-1.6s0.5-1.1,0.7-1.6s0.3-0.8,0.3-1.1c0-0.3-0.2-0.5-0.7-0.7c-0.4-0.1-0.5-0.3-0.5-0.6
				c0-0.4,0.3-0.6,0.8-0.6h4.1c0.6,0,0.8,0.2,0.8,0.5c0,0,0,0.1-0.2,0.2s-0.4,0.3-0.7,0.6s-0.5,0.4-0.8,0.7S486,306.1,486,306.3z"/>
			<path class="st0" d="M489.7,313.5c0-0.9,0.1-1.8,0.4-2.6s0.7-1.5,1.2-2.1s1.2-1,2-1.4s1.7-0.5,2.7-0.5s1.9,0.2,2.7,0.5
				s1.5,0.8,2,1.4s0.9,1.3,1.2,2.1s0.4,1.7,0.4,2.6c0,1-0.1,1.8-0.4,2.6s-0.7,1.5-1.2,2.1s-1.2,1-2,1.4s-1.7,0.5-2.7,0.5
				s-1.9-0.2-2.7-0.5s-1.5-0.8-2-1.4s-0.9-1.3-1.2-2.1S489.7,314.4,489.7,313.5z M499.4,313.4c0-0.6-0.1-1.2-0.2-1.8
				s-0.3-1.2-0.6-1.7s-0.6-0.9-1-1.2s-1-0.5-1.6-0.5s-1.2,0.2-1.6,0.5s-0.8,0.7-1,1.2s-0.4,1-0.6,1.7s-0.2,1.2-0.2,1.8
				c0,0.6,0.1,1.3,0.2,1.9s0.3,1.2,0.6,1.7s0.6,0.9,1,1.2s1,0.5,1.6,0.5s1.2-0.2,1.6-0.5s0.8-0.7,1-1.2s0.4-1.1,0.6-1.7
				S499.4,314.1,499.4,313.4L499.4,313.4z"/>
			<path class="st0" d="M515.2,316.1c0,0.6-0.1,1.1-0.4,1.6s-0.7,0.9-1.2,1.3c-0.5,0.3-1,0.5-1.5,0.7s-1.2,0.2-1.8,0.2
				c-1.2,0-2.3-0.3-3.2-0.9c-1-0.7-1.6-1.7-1.6-2.8v-7.5c0-0.3-0.2-0.6-0.6-0.7c-0.4-0.1-0.6-0.3-0.6-0.5c0-0.3,0.2-0.5,0.5-0.5h4.4
				c0.3,0,0.5,0.2,0.5,0.5c0,0.2-0.2,0.4-0.6,0.5c-0.4,0.1-0.6,0.4-0.6,0.7v7.4c0,0.7,0.2,1.3,0.7,1.7s1,0.6,1.7,0.6
				c0.8,0,1.5-0.2,2-0.6s0.7-1,0.7-1.9v-7.2c0-0.3-0.2-0.6-0.6-0.7c-0.4-0.1-0.6-0.3-0.6-0.5c0-0.3,0.2-0.5,0.5-0.5h3
				c0.3,0,0.5,0.2,0.5,0.5c0,0.2-0.2,0.4-0.6,0.5c-0.4,0.1-0.6,0.4-0.6,0.9V316.1z"/>
			<path class="st0" d="M544,307.2c-0.3-0.2-0.6-0.4-0.7-0.6s-0.4-0.4-0.6-0.6c-0.3-0.4-1.1-0.6-2.4-0.6c-0.5,0-0.8,0.2-0.8,0.7
				v11.7c0,0.4,0.2,0.7,0.7,0.9s0.7,0.4,0.7,0.7c0,0.4-0.2,0.6-0.6,0.6h-5.4c-0.4,0-0.6-0.2-0.6-0.6c0-0.3,0.1-0.5,0.4-0.6
				c0.7-0.2,1-0.6,1-1.2l0-11.5c0-0.2,0-0.4-0.1-0.5s-0.3-0.2-0.5-0.2c-0.3,0-0.6,0-0.9,0s-0.5,0-0.7,0s-0.4,0.1-0.6,0.3
				s-0.4,0.3-0.6,0.6c-0.5,0.6-0.8,0.9-1.1,0.9c-0.4,0-0.6-0.2-0.6-0.6c0-0.3,0.2-0.8,0.5-1.4c0.1-0.2,0.2-0.4,0.3-0.6
				s0.2-0.4,0.3-0.5s0.2-0.3,0.4-0.3s0.3-0.1,0.5-0.1c1.7,0,3.1,0,4.2,0s2,0,2.7,0s1.2,0,1.6,0s0.6,0,0.8,0s0.3,0,0.3,0s0.1,0,0.2,0
				c0.5,0,0.9,0.3,1.3,0.9s0.7,1.3,0.8,2.1c0,0.1,0,0.1,0,0.2s-0.1,0.1-0.2,0.2s-0.2,0.1-0.2,0.1S544,307.2,544,307.2z"/>
			<path class="st0" d="M550.8,311.9h3.4c0.3,0,0.4-0.1,0.4-0.4v-2.9c0-0.3-0.2-0.6-0.6-0.7c-0.4-0.1-0.6-0.3-0.6-0.5
				c0-0.3,0.2-0.5,0.5-0.5h4.4c0.3,0,0.5,0.2,0.5,0.5c0,0.2-0.2,0.4-0.6,0.5c-0.4,0.1-0.6,0.4-0.6,0.7v9.5c0,0.4,0.2,0.6,0.6,0.7
				c0.4,0.1,0.6,0.3,0.6,0.5c0,0.3-0.2,0.5-0.5,0.5h-4.4c-0.3,0-0.5-0.2-0.5-0.5c0-0.2,0.2-0.4,0.6-0.5c0.4-0.1,0.6-0.3,0.6-0.7
				v-4.5c0-0.2-0.1-0.3-0.4-0.4h-3.4c-0.3,0-0.4,0.1-0.4,0.4v4.5c0,0.3,0.2,0.6,0.6,0.7c0.4,0.1,0.6,0.3,0.6,0.5
				c0,0.3-0.2,0.5-0.5,0.5h-4.4c-0.3,0-0.5-0.2-0.5-0.5c0-0.2,0.2-0.4,0.6-0.5c0.4-0.1,0.6-0.3,0.6-0.7v-9.5c0-0.3-0.2-0.6-0.6-0.7
				c-0.4-0.1-0.6-0.3-0.6-0.5c0-0.3,0.2-0.5,0.5-0.5h4.4c0.3,0,0.5,0.2,0.5,0.5c0,0.2-0.2,0.4-0.6,0.5c-0.4,0.1-0.6,0.4-0.6,0.7v2.9
				C550.4,311.8,550.5,311.9,550.8,311.9z"/>
			<path class="st0" d="M565,311.5c0.3,0.1,0.5,0.2,0.8,0.2c0.1,0,0.3,0,0.6,0s0.5,0,0.6,0c0.3,0,0.6,0.1,0.8,0.2s0.3,0.3,0.3,0.6
				s-0.1,0.5-0.3,0.6s-0.5,0.2-0.9,0.2c-0.3,0-0.6,0-0.8,0s-0.4,0-0.4,0c-0.1,0-0.3,0-0.5,0.1s-0.3,0.2-0.3,0.5v4.1
				c0,0.3,0.1,0.5,0.2,0.6s0.3,0.1,0.6,0.1c0.3,0,0.6,0,1,0s0.8,0,1.2,0c0.3,0,0.6-0.1,0.9-0.2s0.5-0.3,0.7-0.5
				c0.2-0.2,0.4-0.4,0.6-0.6s0.3-0.2,0.3-0.2c0.1,0,0.3,0,0.4,0.1s0.2,0.2,0.2,0.3c0,0.1,0,0.2-0.1,0.4s-0.1,0.4-0.2,0.6
				s-0.2,0.4-0.3,0.6s-0.2,0.4-0.3,0.5c-0.1,0.1-0.3,0.2-0.4,0.3s-0.3,0.1-0.3,0.1h-8.1c-0.2,0-0.3-0.1-0.4-0.2s-0.1-0.2-0.1-0.4
				c0-0.1,0.1-0.2,0.2-0.3s0.3-0.1,0.4-0.2s0.3-0.1,0.4-0.3s0.2-0.3,0.2-0.5v-9.5c0-0.2-0.1-0.3-0.2-0.4s-0.3-0.2-0.4-0.3
				s-0.3-0.2-0.4-0.2s-0.2-0.2-0.2-0.3c0-0.3,0.2-0.5,0.5-0.5h7.7c0.2,0,0.4,0.1,0.5,0.2s0.3,0.3,0.4,0.5s0.2,0.4,0.3,0.6
				s0.1,0.5,0.1,0.7c0,0,0,0.1-0.1,0.2s-0.1,0.1-0.2,0.2s-0.1,0.1-0.2,0.1s-0.2,0-0.3-0.1c-0.4-0.3-0.6-0.5-0.9-0.6
				s-0.4-0.3-0.7-0.3s-0.5-0.1-0.8-0.1s-0.8,0-1.3,0c-0.5,0-0.7,0.1-0.9,0.2s-0.2,0.3-0.2,0.5c0,0.6,0,1.1,0,1.4s0,0.6,0,0.8
				s0,0.3,0,0.4S565,311.5,565,311.5z"/>
			<path class="st0" d="M592.1,320.1c-1,0-2.2-0.1-3.5-0.4c-1.8-0.3-2.7-0.8-2.7-1.4c0-0.1,0.2-0.3,0.5-0.5s0.5-0.6,0.5-1v-10.2
				c0-0.3-0.2-0.5-0.7-0.6c-0.5-0.2-0.7-0.4-0.7-0.7c0-0.2,0.1-0.4,0.4-0.6s0.7-0.3,1.1-0.5s0.9-0.2,1.5-0.3s1.1-0.2,1.5-0.2
				s0.9-0.1,1.3-0.1s0.7,0,0.8,0c0.7,0,1.3,0.1,2,0.2s1.3,0.3,1.9,0.6s1.1,0.7,1.4,1.2s0.6,1.1,0.6,1.8c0,0.4-0.1,0.7-0.2,1.1
				s-0.3,0.7-0.6,1s-0.5,0.6-0.9,0.8s-0.7,0.4-1,0.5v0.3c0.4,0.2,0.9,0.4,1.3,0.6s0.8,0.5,1.1,0.9s0.6,0.7,0.8,1.1s0.3,0.9,0.3,1.4
				c0,0.9-0.2,1.7-0.5,2.4s-0.7,1.2-1.3,1.6s-1.3,0.7-2.1,0.9S593.2,320.1,592.1,320.1z M591.5,311.1c0-0.1,0.1-0.3,0.4-0.5
				s0.7-0.4,1.1-0.6c0.5-0.3,0.9-0.6,1.1-1s0.3-0.9,0.3-1.4c0-0.3,0-0.6-0.1-0.9s-0.2-0.6-0.3-0.8s-0.3-0.4-0.6-0.6
				s-0.5-0.2-0.9-0.2c-0.5,0-0.9,0.1-1.3,0.4s-0.6,0.6-0.6,1.1V317c0,0.3,0.1,0.5,0.2,0.6s0.3,0.3,0.5,0.4s0.4,0.2,0.6,0.2
				s0.5,0.1,0.7,0.1c0.4,0,0.8-0.1,1.1-0.2s0.6-0.4,0.8-0.7s0.4-0.6,0.4-1s0.1-0.8,0.1-1.2c0-0.8-0.2-1.4-0.5-1.9s-0.8-0.9-1.3-1.1
				c-0.6-0.3-1.1-0.5-1.4-0.7S591.5,311.2,591.5,311.1z"/>
			<path class="st0" d="M605.2,311.5c0.3,0.1,0.5,0.2,0.8,0.2c0.1,0,0.3,0,0.6,0s0.5,0,0.6,0c0.3,0,0.6,0.1,0.8,0.2s0.3,0.3,0.3,0.6
				s-0.1,0.5-0.3,0.6s-0.5,0.2-0.9,0.2c-0.3,0-0.6,0-0.8,0s-0.4,0-0.4,0c-0.1,0-0.3,0-0.5,0.1s-0.3,0.2-0.3,0.5v4.1
				c0,0.3,0.1,0.5,0.2,0.6s0.3,0.1,0.6,0.1c0.3,0,0.6,0,1,0s0.8,0,1.2,0c0.3,0,0.6-0.1,0.9-0.2s0.5-0.3,0.7-0.5
				c0.2-0.2,0.4-0.4,0.6-0.6s0.3-0.2,0.3-0.2c0.1,0,0.3,0,0.4,0.1s0.2,0.2,0.2,0.3c0,0.1,0,0.2-0.1,0.4s-0.1,0.4-0.2,0.6
				s-0.2,0.4-0.3,0.6s-0.2,0.4-0.3,0.5c-0.1,0.1-0.3,0.2-0.4,0.3s-0.3,0.1-0.3,0.1h-8.1c-0.2,0-0.3-0.1-0.4-0.2s-0.1-0.2-0.1-0.4
				c0-0.1,0.1-0.2,0.2-0.3s0.3-0.1,0.4-0.2s0.3-0.1,0.4-0.3s0.2-0.3,0.2-0.5v-9.5c0-0.2-0.1-0.3-0.2-0.4s-0.3-0.2-0.4-0.3
				s-0.3-0.2-0.4-0.2s-0.2-0.2-0.2-0.3c0-0.3,0.2-0.5,0.5-0.5h7.7c0.2,0,0.4,0.1,0.5,0.2s0.3,0.3,0.4,0.5s0.2,0.4,0.3,0.6
				s0.1,0.5,0.1,0.7c0,0,0,0.1-0.1,0.2s-0.1,0.1-0.2,0.2s-0.1,0.1-0.2,0.1s-0.2,0-0.3-0.1c-0.4-0.3-0.6-0.5-0.9-0.6
				s-0.4-0.3-0.7-0.3s-0.5-0.1-0.8-0.1s-0.8,0-1.3,0c-0.5,0-0.7,0.1-0.9,0.2s-0.2,0.3-0.2,0.5c0,0.6,0,1.1,0,1.4s0,0.6,0,0.8
				s0,0.3,0,0.4S605.2,311.5,605.2,311.5z"/>
			<path class="st0" d="M617.8,320c-0.1,0-0.3,0-0.6-0.1s-0.5-0.1-0.8-0.2s-0.5-0.1-0.8-0.2s-0.4,0-0.5,0c-0.2,0-0.3,0.1-0.4,0.3
				s-0.2,0.2-0.4,0.2c-0.2,0-0.4-0.1-0.5-0.4s-0.3-0.6-0.4-0.9s-0.2-0.7-0.2-1s-0.1-0.6-0.1-0.7c0-0.1,0-0.2,0.1-0.2
				s0.1-0.1,0.2-0.2s0.2-0.1,0.2-0.1s0.1,0,0.2,0.1c0.4,0.6,0.9,1,1.5,1.3s1.2,0.5,1.7,0.6s1,0,1.4-0.3s0.6-0.6,0.6-1.2
				c0-0.4-0.1-0.7-0.2-1s-0.3-0.5-0.5-0.8s-0.5-0.4-0.8-0.6s-0.6-0.4-1-0.6c-0.6-0.4-1.2-0.7-1.6-1.1s-0.8-0.6-1-0.9
				s-0.5-0.6-0.6-0.9s-0.2-0.7-0.2-1.1c0-0.5,0.1-0.9,0.3-1.3s0.4-0.7,0.8-1s0.7-0.5,1.2-0.7s1-0.2,1.5-0.2c0.1,0,0.3,0,0.5,0
				s0.4,0.1,0.6,0.1s0.4,0.1,0.6,0.1s0.4,0.1,0.6,0.1c0.1,0,0.1,0,0.2,0s0.1-0.1,0.2-0.2s0.1-0.1,0.2-0.2s0.1-0.1,0.2-0.1
				c0.2,0,0.3,0.1,0.5,0.4s0.3,0.6,0.4,0.9s0.2,0.7,0.3,1s0.1,0.5,0.1,0.6c0,0.4-0.2,0.5-0.5,0.5c-0.3-0.2-0.5-0.5-0.8-0.7
				s-0.5-0.4-0.8-0.6c-0.3-0.2-0.6-0.3-0.9-0.4s-0.7-0.2-1-0.1s-0.6,0.1-0.8,0.3s-0.3,0.5-0.3,0.9c0,0.2,0.1,0.4,0.3,0.6
				s0.4,0.4,0.7,0.6s0.6,0.4,0.9,0.6s0.7,0.4,1,0.6c0.4,0.3,0.8,0.5,1.1,0.9s0.7,0.7,1,1s0.5,0.8,0.7,1.2s0.3,0.9,0.3,1.3
				c0,1.2-0.4,2-1.2,2.6S619.2,320,617.8,320z"/>
			<path class="st0" d="M634.6,309.7c-0.3-0.2-0.4-0.3-0.6-0.4s-0.3-0.3-0.5-0.5c-0.1-0.1-0.3-0.3-0.7-0.3s-0.7-0.1-1.2-0.1
				c-0.4,0-0.6,0.2-0.6,0.5v9.4c0,0.3,0.2,0.6,0.6,0.7c0.4,0.1,0.6,0.3,0.6,0.5c0,0.3-0.2,0.5-0.5,0.5h-4.3c-0.3,0-0.5-0.2-0.5-0.5
				c0-0.3,0.1-0.4,0.4-0.4c0.5-0.1,0.8-0.5,0.8-1l0-9.2c0-0.2,0-0.3-0.1-0.4s-0.2-0.1-0.4-0.1c-0.3,0-0.5,0-0.7,0s-0.4,0-0.6,0
				s-0.3,0.1-0.5,0.2s-0.3,0.3-0.5,0.5c-0.4,0.5-0.7,0.8-0.9,0.8c-0.3,0-0.5-0.1-0.5-0.4c0-0.3,0.1-0.6,0.4-1.1
				c0.2-0.4,0.4-0.7,0.5-0.9s0.4-0.4,0.7-0.4c1.3,0,2.5,0,3.4,0s1.6,0,2.2,0s1,0,1.3,0s0.5,0,0.6,0s0.2,0,0.3,0s0.1,0,0.2,0
				c0.4,0,0.7,0.3,1,0.7s0.5,1,0.7,1.7c0,0,0,0.1,0,0.2s-0.1,0.1-0.2,0.2s-0.1,0.1-0.2,0.1S634.6,309.7,634.6,309.7z"/>
		</g>
	</g>
	<g>
		<g>
			<path class="st0" d="M76.5,237.4v1.9h-9.3v6.8c0,4.1-5.1,4.8-10.3,1.3l0.4-1.5c5.4,1.2,6.1,0.8,6.1-1.3v-5.3H40.5v-1.9h22.9v-3.7
				h3.8v3.7H76.5z M41.7,235.9l-0.7-3.3c2-0.1,4.1-0.2,6.2-0.4v-5.1H42v-1.9h14.4v1.9h-5.5v4.7c2.1-0.3,4.2-0.5,6.2-0.8l0.3,1.4
				C51.6,234.1,46.2,235.3,41.7,235.9z M65.9,218.3H41.6v-1.9h24.3v-2.5H46.2V212h23.6v4.4h5.8v1.9h-5.8v4.6H46V221h19.9V218.3z
				 M48.2,239.7c2.9,1.3,5.6,3.4,7.3,5.1l-2.5,2.7c-1.3-1.8-3.3-4.2-5.6-6.4L48.2,239.7z M58.1,225.2h15.1v7.6H58.1V225.2z
				 M61.7,230.9h7.8v-3.8h-7.8V230.9z"/>
			<path class="st0" d="M112.1,232.7v12.7c0,3.7-3.6,5.9-10.3,2l0.4-1.4c5.7,1,6.3,0.5,6.3-1.5v-10.2c-2.2,0.9-4.4,1.8-6,2.2l-1.3-4
				c2-0.4,4.7-1,7.4-1.6v-9.6h-6.8v-1.9h6.8v-8.7h3.6v8.7h5.6v1.9h-5.6v8.7c1.9-0.5,3.6-1,4.8-1.4l0.5,1.4
				C116,230.8,114.1,231.8,112.1,232.7z M132.8,249c-3.4-1.4-5.9-4.5-7.7-8.4c-3.6,2.8-7.3,4.8-11.1,6.1l-0.7-1.4
				c3.9-1.8,7.5-4.2,10.7-7.4c-1.4-4.1-2.2-8.8-2.6-13.2c-2.4,0.3-4.8,0.6-7.2,0.9l-0.2-1.9c2.4-0.3,4.8-0.6,7.2-1
				c-0.3-4.2-0.4-8.4-0.4-12.1h3.5c0,3.7,0.1,7.7,0.4,11.7l11.6-1.5l0.2,1.9c-3.9,0.5-7.8,1.1-11.7,1.6c0.4,3.9,0.9,7.5,1.8,10.7
				c2-2.5,3.9-5.4,5.6-8.8l3.3,2c-2.2,4-4.9,7.4-7.8,10.1c1.3,3,3.1,5.3,5.6,6.8c1.6,0.9,2,0,2.2-7.6h1.5
				C138.8,246,138,251.1,132.8,249z M131.7,220.2c-1.3-2.1-3.8-5.6-5.3-7.5l1-1.1c2.1,1.1,5.7,4.1,7.4,5.9L131.7,220.2z"/>
			<path class="st0" d="M171.6,220.3v29.3h-3.5v-23.3c-1.4,1.9-3,3.7-4.8,5.3l-1-1.1c4.4-5.9,7-12.7,8.7-20.5l4,1.2
				C174,214.5,172.9,217.6,171.6,220.3z M188.1,219.6v25.6c0,4.2-3.2,6-11,1.8l0.4-1.4c6.6,1.2,6.9,0.7,6.9-1.7v-24.2h-4.9
				c-1.4,2.9-3.2,5.8-5.4,8.6l-1.3-0.9c2.9-5.1,4.5-10.2,5.3-17l4.2,0.9c-0.4,2.1-1.1,4.3-2,6.4H194l1.2-0.9l3.9,2.3
				c-1.6,2.6-4.2,5.7-6.1,7.2l-1.2-1c0.9-1.7,1.9-4,2.4-5.7H188.1z M182,229.1c-1.5,4.8-4,10.6-7.9,15.1l-1.2-0.9
				c2.4-4.5,4.2-9.8,5.2-15.4L182,229.1z M199.4,241.8l-4,1.9c-1.3-5-3.4-11.1-5.1-15.2l1.2-0.8
				C194.5,231.6,197.5,237.3,199.4,241.8z"/>
			<path class="st0" d="M239.8,216.6v-5.3h4.1c0,2.7,0,5.6,0,7.1c1.6,12.2,7.4,21,16.8,26.6l-3.2,4.4c-5.8-3.8-12.6-12.8-14.4-25.1
				c-1.8,13.3-8.7,20.9-18.3,25.1l-0.8-1.3C236.4,240.3,239.8,228.1,239.8,216.6z"/>
			<path class="st0" d="M321.3,245.1v2.3h-34.8v-2.3h15.6v-10.7h-11.8v-2.1h11.8v-9.2h-8.4c-1.8,3.5-4,6.5-6.5,8.7l-1.1-1
				c3.2-4.5,5.7-10.9,6.9-18.6l4.2,1.2c-0.6,2.6-1.5,5.2-2.6,7.6h7.4v-10.5h3.8v10.5h12.6v2H306v9.2h11.6v2.1H306v10.7H321.3z"/>
			<path class="st0" d="M355.1,218.5h7.4V248h-3.6v-3.8h-7v4.6h-3.6v-30.4h4.9c0.6-2.7,1.1-6.3,1.3-8.5l4.4,1
				C357.9,213.3,356.4,216.3,355.1,218.5z M358.9,220.4h-7v9.3h7V220.4z M358.9,242.3v-10.7h-7v10.7H358.9z M381.8,218.6
				c-0.1,13.1-0.3,20-1,25.7c-0.6,5.5-5,7.3-13.3,2.2l0.4-1.5c7.8,1.8,8.7,1.1,9.1-2.3c0.4-4.1,0.8-9.6,0.9-22.2h-8.7
				c-1.3,3.2-3,6.7-5.4,9.8l-1.2-0.9c2.9-5.9,4.4-13.7,5-19.2l4.3,0.9c-0.4,1.9-1,4.6-2,7.5H381.8z M371.3,237.8
				c-1.3-4-2.8-7.3-4.5-10.7l1.2-1c2.7,2.6,5.3,6.2,7,9.5L371.3,237.8z"/>
			<path class="st0" d="M416.5,220.3v29.2H413v-22.4c-1.3,2.1-2.9,4.2-4.8,5.9l-1-1.2c4.3-5.7,7.2-16.1,8.3-21.9l4,1
				C418.8,213.8,417.9,217,416.5,220.3z M444.1,234.5v1.9h-11.4v13.1h-3.8v-13.1h-11.1v-1.9h11.1v-6.9h-9.4v-1.9h9.4v-15.2h3.8v15.2
				h9.6v1.9h-9.6v6.9H444.1z M423.5,224.5c-0.8-3-2.1-7-3.5-10.5l1.3-0.8c2.3,2.9,4.7,6.9,5.8,9.6L423.5,224.5z M435.5,224.3
				l-1.2-0.8c1.3-2.7,2.9-7.2,3.8-10.5l3.9,1.8C440.5,217.6,437.9,221.6,435.5,224.3z"/>
			<path class="st0" d="M477.5,225.9h6.7c0,7.7-0.3,14.1-0.7,18.9c-0.3,4.5-3.7,5.6-9,2.7l0.4-1.4c4.4,0.9,5.2,0.4,5.4-1.7
				c0.3-3.1,0.6-10.6,0.6-16.6h-3.5c-0.3,11.5-1.8,16.8-6.8,22l-1.1-1c3.9-5.5,4.5-9.5,4.5-28.2h-4.3v-1.9h7.9
				c-1.1-2.5-2.7-5.5-3.8-7.6l1.1-1c2.2,1.8,4.7,5,6,6.9l-2.4,1.6h7.3v1.9h-8.3V225.9z M483.9,224.2c2.9-4,4.3-8.8,5.3-13.9l3.8,1.2
				c-0.5,1.7-1.1,3.4-2,5.1h13.1v1.9h-14.1c-1.2,2.2-2.9,4.5-5.2,6.7L483.9,224.2z M505.3,245.9l-2.8,3.7c-4.3-3.5-8.2-9.2-8.5-23.6
				c-0.9,0.3-1.9,0.4-2.9,0.6V244c1.7-0.4,3.3-0.8,4.9-1.4l0.5,1.4c-3.9,2.4-7.9,4-11.1,4.6l-1.1-3.5c1.1-0.1,2.2-0.3,3.3-0.4v-20.4
				l3.3,0.7c3-1,6.4-3.1,8.4-4.8l2.8,2.8c-1.9,1-4.3,1.9-6.8,2.6c0.2,3.1,0.6,5.8,1.3,8.3c1.6-1.6,3-3.4,4.3-5.5l2.7,2.3
				c-1.7,1.7-4.1,3.4-6.5,4.7C498.7,239.8,501.3,243.2,505.3,245.9z"/>
		</g>
	</g>
</g>
<g>
	<g>
		<g>
			<path class="st1" d="M115.6,153.5l-101.9-22c-5.9-1.3-9.6-7.1-8.4-13l22-101.9c1.3-5.9,7.1-9.6,13-8.4l101.9,22
				c5.9,1.3,9.6,7.1,8.4,13l-22,101.9C127.3,151,121.5,154.8,115.6,153.5z"/>
		</g>
		<g>
			<path class="st2" d="M110.7,119.7c0,3.8-0.7,6.4-2,7.7c-1.4,1.3-3.8,2-7.2,2c-3.5,0-5.9-0.6-7.2-1.9c-1.3-1.3-2-3.7-2-7.4
				c0-3.9,0.7-6.5,2-7.9c1.4-1.4,3.8-2,7.2-2c3.5,0,5.9,0.7,7.2,2C110,113.5,110.7,116,110.7,119.7z"/>
		</g>
	</g>
	<g>
		<path class="st3" d="M233,126.2c-1.6,1.2-3.6,2.6-5.9,4.1c-2.4,1.6-5.1,3.3-8.3,5.1c-2.9,1.6-5.4,3-7.6,4.2c-2.2,1.2-4,2-5.5,2.6
			c-2.2,1-4.5,1.7-6.9,2.1c-2.4,0.4-4.9,0.7-7.5,0.7c-0.8,0-1.7-0.1-2.7-0.3c-1-0.2-2-0.5-3.1-0.8c-1.4-0.4-2.5-0.7-3.5-0.9
			c-1-0.3-1.7-0.4-2.4-0.5l-1-0.9l-2.3-0.3c-1-0.1-2.2-0.5-3.6-1.5c-1.4-0.9-2.9-2.2-4.6-3.9c-1.6-1.6-2.9-3-3.9-4.4
			c-1-1.4-1.7-2.7-2.1-3.8l-2.1-6.7c-0.7-2.3-1.3-4.1-1.7-5.5c-0.4-1.4-0.5-2.3-0.5-2.7l0.9-3.5c-0.4-1.2-0.8-2.2-1-2.9
			c-0.2-0.8-0.4-1.4-0.4-1.8c0-0.4,0.1-1.7,0.4-3.8c0.3-2.1,0.6-5.1,1.1-8.8c0.4-0.7,0.8-1.6,1.2-2.6c0.4-1,0.8-2.2,1.2-3.5
			l-0.2-1.7c0-0.4,0.1-0.9,0.3-1.4c0.2-0.5,0.4-1.2,0.8-1.8c1.2-2.5,2.4-5.1,3.7-7.7c1.2-2.6,2.4-5.1,3.7-7.5
			c1.1-1.9,2.4-3.8,4.1-5.7c1.7-2,3.6-4,5.8-6.1c0.5-0.5,1.1-1.2,1.7-2c0.7-0.8,1.5-1.7,2.5-2.7c0.9-0.5,2-1.3,3.3-2.4
			c1.3-1.1,2.8-2.4,4.6-4.1c0.5-0.2,1.2-0.5,1.9-0.9c0.7-0.4,1.6-0.8,2.7-1.3c0.3-0.2,0.6-0.4,1-0.8c0.4-0.4,0.9-0.7,1.4-1.2
			c0.6-0.5,2.7-1.3,6.4-2.3c3.7-1,6-1.6,7.2-1.6c2.4,0,4.5,0.2,6.2,0.5c1.7,0.3,3,0.9,4.1,1.6l2.5,0.5c2.1,0.5,3.7,2,4.7,4.7
			c1,2.7,1.5,6.6,1.5,11.6c0,2.4,0,4.3-0.1,5.7c-0.1,1.4-0.1,2.4-0.2,2.9c-0.3,1.6-0.7,3.5-1.1,5.9c-0.4,2.4-0.9,5.1-1.5,8.2
			c-0.1,0.8-0.4,2.2-1.1,4.1c-0.7,1.9-1.5,4.2-2.6,7c-1.1,3.1-2.1,5.4-2.9,6.9c-0.8,1.6-1.5,2.4-2,2.6c-2.1,0.5-4.4,1.1-6.8,1.7
			c-1.2,0-2-0.1-2.5-0.3c-0.5-0.2-0.7-0.5-0.7-0.9c0-0.4,0.1-0.9,0.3-1.7c0.2-0.8,0.3-1.3,0.3-1.6c-0.2-2-0.3-4-0.5-6
			c0-0.7,0.2-2.1,0.6-4.3c0.4-2.1,1.1-4.8,1.9-8.1c0.9-3.6,1.7-6.5,2.4-8.6c0.7-2.1,1.2-3.4,1.7-3.9c1.5-1.4,2.6-2.7,3.4-4
			c0.7-1.3,1.1-2.4,1.1-3.5c0-1.4-0.4-2.7-1.1-3.8c-0.7-1.1-1.8-1.9-3.2-2.5c-1.4-0.3-2.8-0.6-4.2-0.9c-1.4-0.3-2.8-0.6-4.2-1
			c-1.1,0.4-2.1,0.7-3,0.9c-0.9,0.2-1.6,0.4-2.3,0.5c-3.6,0.6-7,2.2-10.2,4.8c-3.3,2.6-6.4,6.3-9.3,10.9c-2.4,4-4.4,8.1-5.9,12.1
			c-1.5,4.1-2.5,8.1-3,12.2c-0.2,1.2-0.5,2.8-0.8,4.6c-0.3,1.8-0.8,4-1.4,6.5c0.5,1.6,0.9,3,1.3,4.3l-0.8,7.1c0,0.3,0.2,0.8,0.7,1.6
			c0.5,0.8,1.2,2,2.2,3.5c0.6,0.9,1.1,1.9,1.6,3.1c0.5,1.2,0.8,2.5,1.1,4c0.1,0.4,0.3,0.8,0.6,1.2c0.3,0.4,0.6,0.8,1,1
			c0.8,0.7,1.6,1.3,2.3,1.8c2.3,2.4,4.7,4.2,7.3,5.4c2.6,1.2,5.3,1.8,8.2,1.8c0.3,0,1.3-0.1,3-0.4c1.7-0.3,4.1-0.7,7.1-1.2
			c0.5-0.4,1.2-0.7,2.1-1.1c0.9-0.4,1.9-0.7,3.1-1.2c1.1-1,2.1-1.8,3.2-2.2c1.1-0.4,2-0.7,2.9-0.7c0.3-0.4,0.6-0.8,1-1.3
			c0.4-0.5,0.9-1.1,1.5-1.7c1.6-0.6,3-1.4,4.4-2.4c1.3-1,2.6-2.2,3.8-3.5C231.9,123.5,233,125.9,233,126.2z"/>
		<path class="st3" d="M229.7,119c0.4-0.4,0.8-0.8,1.2-1.4c0.4-0.6,0.9-1.3,1.4-2l6.1-4.1c0.7-0.9,1.9-2,3.4-3.4
			c1.5-1.4,3.4-3,5.7-5c0.3-0.6,0.7-1.2,1.3-2c0.6-0.7,1.3-1.5,2.2-2.2c0.7-0.7,1.5-1.3,2.2-1.9c0.7-0.6,1.4-1.2,2.1-1.7
			c0.8-0.8,1.5-1.6,2.3-2.3c0.7-0.8,1.4-1.5,2.2-2.2c0.8-0.7,1.7-1.3,2.6-1.7c0.9-0.4,1.9-0.6,2.9-0.6c1.2,0,2.1,0.1,2.7,0.4
			c0.6,0.3,0.9,0.7,1,1.2c-0.5,1.2-1.1,2.4-1.7,3.6l0.5,0.7c2.3-0.9,4.2-1.5,5.5-1.9c1.3-0.4,2.2-0.6,2.5-0.6c3.9,0,6.8,1.2,8.7,3.5
			c1.9,2.3,2.9,5.8,2.9,10.4c0,0.9-0.1,1.9-0.3,3.1c-0.2,1.2-0.6,2.5-1,3.9c-0.5,1.6-1.1,2.8-1.7,3.9c-0.6,1-1.2,1.8-1.7,2.2
			c0.2,0.7,0.4,1.2,0.7,1.4c0.3,0.3,0.6,0.4,1,0.4c0.4,0,0.9-0.1,1.3-0.4c0.4-0.3,1-0.6,1.6-1.2c0.5,1.1,1,2.3,1.5,3.5
			c0.5,1.2,1,2.4,1.5,3.6c-1,0.8-1.9,1.6-2.8,2.4c-0.9,0.8-1.9,1.5-2.9,2.2c-1.2,1-2.4,1.7-3.5,2.1c-1.1,0.4-2.2,0.7-3.2,0.7
			c-1.2,0-2.2-0.3-3-0.9c-0.8-0.6-1.4-1.4-1.9-2.4c-1.3,1.7-2.9,3.3-4.8,4.7c-1.9,1.4-4,2.6-6.2,3.5c-1.3,0.6-2.5,1.1-3.6,1.4
			c-1.1,0.3-2.1,0.5-3,0.5c-0.3,0-0.8,0.1-1.5,0.3c-0.8,0.2-1.4,0.3-1.9,0.3c-3,0-5.7-1.2-8.2-3.7c-2.4-2.5-3.7-5.2-3.7-8.3
			c0-1.2,0.3-2.9,0.9-4.9c0.6-2,0.9-3.2,0.9-3.6s-0.1-0.7-0.4-0.9c-0.2-0.2-0.6-0.3-1-0.3c-0.3,0-0.9,0.4-1.9,1.2
			c-1,0.8-2.4,1.9-4.3,3.3c-0.2,0.2-0.3,0.5-0.6,0.9c-0.2,0.4-0.6,0.9-1,1.4c-0.4-1.2-0.9-2.4-1.4-3.6
			C231,121.3,230.4,120.2,229.7,119z M268,104.8c-0.3,0.1-0.6,0.3-1.2,0.8c-0.5,0.5-1,1.1-1.5,1.8c-0.7,1.2-1.6,2.5-2.5,3.9
			c-0.6,0.6-1.2,1.1-1.9,1.4c-0.7,0.3-1.4,0.6-2.3,0.7c-0.5,0.1-1.1,0.6-1.7,1.5c-0.6,1-1.2,2.3-1.7,4.2c-0.6,1.6-1,3-1.3,4.1
			c-0.3,1.1-0.4,2.1-0.4,2.9c0,1.4,0.4,2.5,1.1,3.3c0.7,0.7,1.9,1.1,3.4,1.1c2.4,0,4.7-0.7,6.7-2c2-1.3,4-3.3,5.8-5.9
			c0.8-1,1.6-1.9,2.4-2.8c0.4-0.3,0.8-0.8,1-1.5c0.3-0.7,0.5-1.6,0.8-2.6l1.4-4.4c-0.5-1.6-0.9-2.8-1.4-3.7
			c-0.4-0.9-0.8-1.5-1.3-1.7c-0.3-0.2-0.8-0.3-1.7-0.5C271,105.2,269.7,105,268,104.8z"/>
		<path class="st3" d="M287.2,119c0.2-0.4,0.5-0.8,0.8-1.2c0.3-0.4,0.8-1,1.2-1.6c0.5-0.4,1.2-1,2.1-1.8c0.8-0.8,1.8-1.7,2.9-2.7
			c1-1,2.1-2.3,3.5-3.8c1.4-1.5,3-3.4,5-5.5c0.8-0.9,1.9-2,3.2-3.4c1.3-1.4,2.8-3,4.5-4.9c1.5-1.7,3.1-3,4.8-3.8
			c1.7-0.8,3.5-1.2,5.4-1.2c1.9,0,3.3,0.6,4.2,1.7c0.9,1.2,1.4,2.9,1.4,5.1c0,1.2-0.5,3.5-1.4,6.8c-0.9,3.4-2.3,7.8-4.2,13.3
			c-0.5,1-0.9,2-1.4,2.9c-0.3,0.7-0.5,1.3-0.6,1.8c-0.1,0.5-0.2,0.9-0.2,1.2c0,0.3,0.2,0.7,0.6,1.2c0.3-0.2,0.5-0.4,0.8-0.6
			c0.2-0.3,0.5-0.6,0.8-0.9c0.4-0.8,1.1-1.6,1.9-2.4c0.9-0.9,1.9-1.8,3.1-2.8c0.5-0.9,1.1-1.7,1.9-2.6c0.8-0.9,1.6-1.6,2.6-2.4
			c0.2-0.2,0.5-0.5,0.8-1c0.3-0.5,0.8-1,1.2-1.5c0.7-0.7,1.5-1.4,2.5-2.1c1-0.7,2.1-1.5,3.3-2.2c1.4-0.7,2.7-1.3,3.9-1.7
			c1.1-0.4,2.1-0.6,3-0.6c1.6,0,3.1,0.4,4.4,1.2c1.3,0.8,2.4,2,3.3,3.6c1.1,3.2,2.1,6.2,3,8.9c0.6,1.6,1.2,2.8,1.9,3.6
			c0.7,0.8,1.5,1.2,2.4,1.2c0.7,0,1.3-0.1,1.9-0.4c0.6-0.3,1.1-0.6,1.5-1.2l3.2,7.1c-0.9,0.7-1.8,1.5-2.8,2.2
			c-1,0.8-1.9,1.5-2.8,2.2c-1.2,1.1-2.4,1.8-3.4,2.3c-1.1,0.4-2.1,0.7-3.2,0.7c-1.2,0-2.4-0.3-3.5-0.8s-2.1-1.3-2.9-2.3
			c-0.4-0.4-1-1.2-1.6-2.3c-0.6-1.1-1.4-2.5-2.2-4.2c-0.7-0.7-1.5-1.6-2.3-2.7c-0.9-1.1-1.9-2.4-3.1-3.9l-0.7-0.2
			c-1,0.3-2,0.8-3,1.4c-1,0.6-2,1.4-3.1,2.4c-2.4,2.1-4.1,3.4-5.2,3.9c-1.1,0.5-1.8,1.1-2.1,1.8c-0.7,1.2-2,2.8-3.8,4.8
			c-1.8,2-4,4.3-6.7,7c-0.7,0.7-1.4,1.3-2.1,2c-0.7,0.6-1.4,1.3-2.1,1.9c-0.7,0.6-1.5,1-2.3,1.2c-0.9,0.2-1.8,0.3-2.9,0.3
			c-2.1,0-3.3-0.7-3.5-2.1c-0.2-1.4-0.4-2.9-0.5-4.3c0.8-2.2,1.7-4.9,2.7-8.1s2.2-7.1,3.5-11.4c0-0.3,0.1-0.6,0.3-1
			c0.2-0.4,0.4-1,0.7-1.7c0.3-0.7,0.4-1.3,0.6-1.7c0.1-0.5,0.2-0.9,0.2-1.3s-0.1-0.6-0.4-0.9c-0.3-0.2-0.7-0.3-1.3-0.3
			c-0.5,0-1.2,0.3-2.1,0.9c-0.9,0.6-1.9,1.6-3.1,2.9c-1.5,1.6-2.7,2.8-3.6,3.6c-0.9,0.9-1.5,1.4-1.8,1.6c-0.5,0.4-1.2,0.9-1.9,1.6
			c-0.7,0.7-1.5,1.4-2.4,2.2c-0.1,0.2-0.3,0.5-0.5,0.9c-0.2,0.4-0.6,0.9-1,1.4c-0.2-0.8-0.6-1.7-1.1-2.9
			C288.7,122.2,288.1,120.7,287.2,119z"/>
		<path class="st3" d="M363.2,119l0.3-0.6c0.3-0.4,0.7-0.9,1.2-1.6c0.5-0.6,1.1-1.3,1.8-2.2c3.8-3.4,7.4-7.5,11-12.2
			c3.6-4.7,7.1-10.2,10.6-16.3c0.4-0.6,0.9-1.3,1.4-2.2c0.5-0.9,1.1-2.1,1.7-3.5c0-0.3-0.1-0.5-0.2-0.7c-0.2-0.2-0.4-0.2-0.8-0.2
			c-0.3,0-0.8,0.1-1.5,0.3c-0.7,0.2-1.3,0.3-1.6,0.3h-9.9c-0.4,0-1.1,0-2.1-0.1c-1-0.1-1.7-0.1-2.1-0.1c-0.5-0.3-1-0.5-1.5-0.7
			c-0.5-0.2-0.9-0.4-1.3-0.6c-0.6-0.2-1.1-0.5-1.5-0.8c-0.3-0.3-0.5-0.7-0.5-1.2c0-3.3,0.4-5.8,1.1-7.6c0.7-1.8,1.8-2.6,3.3-2.6
			c1.5,0,2.9,0.1,4.2,0.2c1.3,0.1,2.5,0.3,3.5,0.5c0.8-0.2,1.5-0.3,2.2-0.5c1.4,0,2.6,0.1,3.7,0.2c1,0.1,1.8,0.2,2.3,0.4
			c0.7-0.2,1.4-0.3,2-0.4c0.7-0.1,1.4-0.3,2.2-0.4l2.6,0.8c1.9-0.2,3.8-2.7,5.9-7.6c2.1-4.9,4.3-7.3,6.7-7.3c1.3,0,2.3,0.4,2.9,1.2
			c0.7,0.8,1,1.9,1,3.4c0,1.2-0.4,2.8-1.1,4.7c-0.7,1.9-1.1,3.4-1.2,4.4c0.1,0.2,0.2,0.4,0.4,0.7c0.2,0.2,0.5,0.5,0.8,0.8
			c0.3,0.2,0.5,0.6,0.7,1c0.1,0.5,0.2,1.1,0.2,1.8c0,3.1-0.1,5.5-0.4,7.2c-0.3,1.7-0.8,2.5-1.4,2.6l-5.4,1.1
			c-0.1,0.5-0.2,1.2-0.4,1.9c-0.2,0.8-0.4,1.6-0.6,2.6c-0.9,2.6-1.9,5.9-3,9.9c-1.1,4-2.4,8.7-3.7,14.1c-0.9,4.3-1.5,7.9-2,10.6
			c-0.5,2.7-0.7,4.5-0.7,5.4c0,0.8,0.1,1.4,0.4,1.9c0.3,0.4,0.7,0.6,1.2,0.6c0.3,0,1.5-0.7,3.5-2.2c2-1.5,4.8-3.7,8.3-6.7l3.1,7.1
			c-0.5,0.6-1.3,1.2-2.2,2c-1,0.8-2.1,1.6-3.4,2.5c-0.5,0.6-1.2,1.2-2,1.9c-0.8,0.7-1.7,1.5-2.6,2.4c-1,1-1.9,2.1-2.8,3.1
			c-0.9,1-1.9,2-2.8,3c-1.3,1.3-2.5,2.3-3.7,2.9c-1.2,0.6-2.4,0.9-3.4,0.9c-2.3,0-4.1-0.7-5.2-2c-1.1-1.3-1.7-3.4-1.7-6.1
			c0-3,0.1-5.6,0.3-7.8c0.2-2.2,0.6-4,1-5.3c0.2-0.4,0.4-0.8,0.5-1.1c0-0.5,0.1-1.2,0.2-2.1c0.2-0.9,0.3-1.9,0.6-3.1
			c0.3-2,0.7-4,1-6.1c0.6-1.2,1.2-2.6,1.8-4c0-0.3-0.2-0.5-0.6-0.7l-0.8,0.5c-0.8,1.2-1.8,2.5-3.1,3.9c-1.3,1.4-2.8,2.8-4.5,4.3
			c-2.7,2.5-5.5,5.1-8.3,7.7c-0.2,0.3-0.5,0.6-0.9,1.2c-0.4,0.5-0.9,1.2-1.4,1.9c-0.3-0.6-0.6-1.4-1-2.4c-0.4-1-0.8-2.1-1.2-3.3
			c-0.1-0.3-0.2-0.6-0.4-0.9C363.6,119.4,363.4,119.2,363.2,119z"/>
		<path class="st3" d="M409.8,115.6l7.2-4.7c0.3-0.3,0.6-0.6,1-1c0.4-0.4,0.8-1.1,1.3-1.9c0.4-0.7,0.9-1.2,1.5-1.7
			c0.6-0.5,1.3-0.9,2.1-1.2c0.4-0.5,1-1.2,1.8-1.9c0.8-0.8,1.8-1.7,3-2.7c0.6-0.3,1.3-0.8,2.2-1.4c0.9-0.6,1.9-1.4,2.9-2.4
			c4.8-4.4,9-7.8,12.7-10c3.6-2.2,6.7-3.3,9.2-3.3c1.4,0,2.4,0.3,3.1,0.9c0.7,0.6,1,1.4,1,2.4c0,1.1-0.2,2-0.6,2.9
			c-0.4,0.8-1,1.5-1.9,2.1c-1.3,0.9-2.8,2-4.3,3.1c-0.8,1.1-1.9,2.2-3.1,3.5c-1.2,1.2-2.7,2.4-4.3,3.6c-0.5,0.7-1,1.3-1.4,1.8
			c-0.3,0.3-0.8,0.7-1.5,1.4c-0.7,0.7-1.7,1.4-2.9,2.3c-0.5,1.1-1.7,2.6-3.5,4.4c-1.8,1.8-4.1,4-7.1,6.5c-0.4,0.4-1,1.2-2,2.5
			c-1,1.3-2.2,3-3.7,5.1l0.6,0.7c1.2-0.4,2.4-1,3.7-1.9c1.3-0.9,2.7-2,4.2-3.5c1.8-1.6,3.3-2.9,4.4-3.9c1.1-1,1.9-1.7,2.4-2
			c0.4-0.2,0.7-0.4,1.1-0.6c0.4-0.2,0.8-0.5,1.3-0.8c2.4-2.8,4.7-5,6.8-6.3c2.1-1.4,4.1-2.1,5.9-2.1c1.1,0,2,0.4,2.5,1.3
			c0.6,0.9,0.9,2.1,1,3.8c-0.1,2.6-0.2,5.1-0.2,7.4c-0.1,1.7,0.4,3.1,1.4,4.5c1,1.3,2.3,2,3.9,2c0.5,0,0.9-0.1,1.4-0.4
			c0.4-0.3,0.9-0.6,1.4-1c0.4-0.5,0.7-0.9,1.1-1.3c0.3-0.4,0.7-0.8,1.1-1.2c0.2-0.1,0.5-0.3,0.9-0.5c0.4-0.3,0.8-0.6,1.2-0.9
			c0.7,1.6,1.4,2.9,1.9,4.1c0.5,1.2,0.9,2.2,1.2,3.1c-1.2,1.1-2.4,2.2-3.6,3.4c-1.2,1.2-2.5,2.3-3.8,3.3c-1.6,1.2-3.1,2.1-4.6,2.7
			c-1.5,0.6-3,0.9-4.5,0.9c-3.4,0-6.1-1-7.9-2.9c-1.9-1.9-2.9-4.8-3.3-8.7c0-0.5-0.1-0.9-0.2-1.4c-0.1-0.5-0.4-1-0.8-1.5
			c-0.3,0.3-0.6,0.5-0.9,0.8c-0.3,0.3-0.7,0.7-1.1,1.1c-0.7,0.5-1.5,1.2-2.6,1.9c-1,0.8-2.2,1.7-3.6,2.8c-1.9,1.9-3.4,3.4-4.7,4.6
			c-1.3,1.2-2.2,2-2.7,2.6c-1.1,0.9-2.3,1.8-3.7,2.6c-1.4,0.9-3,1.8-4.7,2.7c-1.1,0.6-2.1,1-2.9,1.4c-0.8,0.3-1.4,0.5-1.7,0.5
			c-2.5,0-4.4-0.6-5.6-1.8c-1.2-1.2-1.8-3.1-1.8-5.6c0-1.4,0.3-2.7,0.9-4c0.6-1.3,1.5-2.5,2.7-3.7c0.1-0.7,0.2-1.2,0.2-1.6
			c0-0.3-0.1-0.5-0.2-0.8c-0.1-0.3-0.3-0.6-0.5-1c-0.3-0.7-0.7-1.5-1.1-2.4c-0.4-0.9-0.8-1.9-1.3-2.9c0.2-0.2,0.5-0.6,0.9-1.2
			C408.8,117.2,409.2,116.5,409.8,115.6z"/>
		<path class="st3" d="M468.3,119l0.5-0.5l0.2-0.8c1.4-1.9,3.9-4.4,7.6-7.5c3.6-3.1,6.1-5.6,7.5-7.5c0.5-0.8,1.1-1.4,1.8-1.8
			c0.7-0.4,1.4-0.5,2.1-0.5c1.9,0,3.4,0.5,4.7,1.4c1.3,0.9,2.1,2.3,2.5,4.1c0.4,1.6,0.7,3.2,1,4.8c0.3,1.6,0.6,3.3,0.8,4.9
			c0.4,1,0.8,2.6,1.4,4.7c0.5,2.1,0.9,3.3,1.2,3.6c0.3,0.5,0.7,0.9,1.2,1.1c0.5,0.2,1.2,0.3,2,0.3c1,0,1.9-0.2,2.9-0.5
			c1-0.3,2-0.9,3.1-1.7c0.8-0.7,1.6-1.4,2.5-2.1c0.9-0.7,1.7-1.4,2.6-2.1l3.2,7.1c-0.8,0.8-2,1.8-3.4,2.8c-1.4,1.1-3.1,2.3-5,3.7
			c-2.2,1.6-4,2.7-5.6,3.5c-1.5,0.8-2.7,1.1-3.5,1.1c-4.8,0-7.9-0.5-9.4-1.6c-1.4-1.1-3-4.1-4.8-9.1c-0.2-0.4-0.5-0.9-1-1.5
			c-0.4-0.6-0.9-1.2-1.4-2c-0.6-1.2-1.2-2.1-1.7-2.7c-0.5-0.6-0.9-0.9-1.2-0.9c-0.8,0-2,0.6-3.4,1.7c-1.4,1.1-3.2,2.8-5.2,5
			c-0.3-0.7-0.6-1.5-1-2.4c-0.4-0.9-0.8-2-1.2-3.3c-0.1-0.3-0.2-0.6-0.4-0.9C468.7,119.4,468.5,119.2,468.3,119z M501.5,57.8
			c1.3,0,2.3,0.3,2.9,0.8c0.6,0.5,0.9,1.3,0.9,2.2c-0.3,1.4-0.6,2.7-0.8,3.6c-0.5,1.9-1,3.4-1.4,4.6c-0.4,1.2-0.7,2-0.9,2.6
			c-0.5,1.1-1.1,2.1-1.9,3c-0.8,0.9-1.8,1.6-3,2.3c-1.2,0.8-2.2,1.4-3.1,1.7c-0.8,0.3-1.4,0.5-1.7,0.4c-0.9-0.1-1.8-0.2-2.6-0.3
			c-0.8-0.1-1.6-0.1-2.4-0.1c-0.7-0.4-1.2-1.1-1.6-2.1c-0.4-1-0.6-2.4-0.6-4.2c0-1.6,1-3.5,2.9-5.9c1.9-2.4,3.6-3.6,5.1-3.8
			c0.9-1.1,2-2.3,3.2-3.7c0.5-0.4,1.2-0.7,2.1-0.9C499.5,57.9,500.4,57.8,501.5,57.8z"/>
		<path class="st3" d="M513.8,119c0.2-0.4,0.5-0.8,0.8-1.2c0.3-0.4,0.8-1,1.2-1.6c0.5-0.4,1.2-1,2.1-1.8c0.8-0.8,1.8-1.7,2.9-2.7
			c1-1,2.1-2.3,3.5-3.8c1.4-1.5,3-3.4,5-5.5c0.8-0.9,1.9-2,3.2-3.4c1.3-1.4,2.8-3,4.5-4.9c1.5-1.7,3.1-3,4.8-3.8
			c1.7-0.8,3.5-1.2,5.4-1.2c1.9,0,3.3,0.6,4.2,1.7c0.9,1.2,1.4,2.9,1.4,5.1c0,1.2-0.5,3.5-1.4,6.8c-0.9,3.4-2.3,7.8-4.2,13.3
			c-0.5,1-0.9,2-1.4,2.9c-0.3,0.7-0.5,1.3-0.6,1.8c-0.1,0.5-0.2,0.9-0.2,1.2c0,0.3,0.2,0.7,0.6,1.2c0.3-0.2,0.5-0.4,0.8-0.6
			c0.2-0.3,0.5-0.6,0.8-0.9c0.4-0.8,1.1-1.6,1.9-2.4c0.9-0.9,1.9-1.8,3.1-2.8c0.5-0.9,1.1-1.7,1.9-2.6c0.8-0.9,1.6-1.6,2.6-2.4
			c0.2-0.2,0.5-0.5,0.8-1c0.3-0.5,0.8-1,1.2-1.5c0.7-0.7,1.5-1.4,2.5-2.1c1-0.7,2.1-1.5,3.3-2.2c1.4-0.7,2.7-1.3,3.9-1.7
			c1.1-0.4,2.1-0.6,3-0.6c1.6,0,3.1,0.4,4.4,1.2c1.3,0.8,2.4,2,3.3,3.6c1.1,3.2,2.1,6.2,3,8.9c0.6,1.6,1.2,2.8,1.9,3.6
			c0.7,0.8,1.5,1.2,2.4,1.2c0.7,0,1.3-0.1,1.9-0.4c0.6-0.3,1.1-0.6,1.5-1.2l3.2,7.1c-0.9,0.7-1.8,1.5-2.8,2.2
			c-1,0.8-1.9,1.5-2.8,2.2c-1.2,1.1-2.4,1.8-3.4,2.3c-1.1,0.4-2.1,0.7-3.2,0.7c-1.2,0-2.4-0.3-3.5-0.8s-2.1-1.3-2.9-2.3
			c-0.4-0.4-1-1.2-1.6-2.3c-0.6-1.1-1.4-2.5-2.2-4.2c-0.7-0.7-1.5-1.6-2.3-2.7c-0.9-1.1-1.9-2.4-3.1-3.9l-0.7-0.2
			c-1,0.3-2,0.8-3,1.4c-1,0.6-2,1.4-3.1,2.4c-2.4,2.1-4.1,3.4-5.2,3.9c-1.1,0.5-1.8,1.1-2.1,1.8c-0.7,1.2-2,2.8-3.8,4.8
			c-1.8,2-4,4.3-6.7,7c-0.7,0.7-1.4,1.3-2.1,2c-0.7,0.6-1.4,1.3-2.1,1.9c-0.7,0.6-1.5,1-2.3,1.2c-0.9,0.2-1.8,0.3-2.9,0.3
			c-2.1,0-3.3-0.7-3.5-2.1c-0.2-1.4-0.4-2.9-0.5-4.3c0.8-2.2,1.7-4.9,2.7-8.1c1-3.3,2.2-7.1,3.5-11.4c0-0.3,0.1-0.6,0.3-1
			s0.4-1,0.7-1.7c0.3-0.7,0.4-1.3,0.5-1.7c0.1-0.5,0.2-0.9,0.2-1.3s-0.1-0.6-0.4-0.9c-0.3-0.2-0.7-0.3-1.3-0.3
			c-0.5,0-1.2,0.3-2.1,0.9c-0.9,0.6-1.9,1.6-3.1,2.9c-1.5,1.6-2.7,2.8-3.6,3.6c-0.9,0.9-1.5,1.4-1.8,1.6c-0.5,0.4-1.2,0.9-1.9,1.6
			c-0.7,0.7-1.5,1.4-2.4,2.2c-0.1,0.2-0.3,0.5-0.5,0.9c-0.2,0.4-0.6,0.9-1,1.4c-0.2-0.8-0.6-1.7-1.1-2.9
			C515.3,122.2,514.6,120.7,513.8,119z"/>
		<path class="st3" d="M589.8,119c0.6-1.1,1.5-2.2,2.5-3.3c1-1.1,2.3-2.3,3.8-3.5c0.2-1,0.3-2.1,0.5-3.1c0.2-1,0.3-2,0.3-3.1
			c0.2-0.7,0.4-1.6,0.8-2.6c0.3-1,0.7-2,1.2-3.2c0.5-1.1,1.1-2.6,1.9-4.3s1.9-3.6,3.2-5.7c1.1-1.2,2.3-2.5,3.5-3.9
			c1.2-1.4,2.4-2.9,3.7-4.3c0.6-0.5,1.2-0.9,1.9-1.3c0.7-0.4,1.4-0.9,2.1-1.4c0.6-0.2,1.4-0.4,2.1-0.5c0.8-0.2,1.7-0.2,2.6-0.2
			c1.3,0,2.4,0.1,3.2,0.4c0.8,0.3,1.5,0.7,2,1.3c0.4,0.4,0.7,1,1.1,1.9c0.3,0.8,0.7,1.8,1,3c0.2,1,0.3,2.2,0.6,3.4
			c0-0.3-0.1-0.2-0.3,0.4c-0.2,0.6-0.5,1.5-0.8,2.7l-0.7,2.5c-0.7,2.5-2.4,5.4-5,8.6c-2.6,3.3-6.1,7-10.5,11.2
			c-0.4,0.4-0.7,0.8-1,1.4c-0.3,0.5-0.4,1.1-0.4,1.7c0,1.1,0.2,2,0.6,2.9c0.4,0.8,1,1.4,1.7,1.9c0.4,0.3,1.1,0.6,2,0.9
			c0.9,0.3,2,0.6,3.3,0.9c2.1-0.2,3.9-0.5,5.6-1c1.7-0.5,3.2-1.1,4.5-1.9c0.3-0.2,0.7-0.4,1.3-0.7c0.6-0.3,1.2-0.7,1.7-1.1
			c0.7,1.5,1.3,2.8,1.8,4c0.5,1.2,1,2.2,1.3,3.1c-3,2.9-5.8,5.1-8.2,6.6c-2.5,1.5-4.7,2.2-6.8,2.2c-0.8,0.5-1.8,0.9-2.9,1.1
			c-1.1,0.2-2.4,0.3-3.9,0.3c-2,0-3.7-0.3-5.2-0.9c-1.5-0.6-2.8-1.4-3.8-2.5c-0.5-0.5-1.1-1.3-1.6-2.3c-0.5-1-1.1-2.2-1.7-3.6
			c-0.5-1.1-0.9-2-1.4-2.5c-0.4-0.5-0.9-0.8-1.4-0.8c-0.4,0-0.9,0.2-1.4,0.6c-0.5,0.4-1.1,1-1.7,1.7c-0.2-0.8-0.6-1.7-1.1-2.9
			C591.3,122.2,590.6,120.7,589.8,119z M615.2,93.8c-1.2,0-2.7,1.5-4.7,4.5c-2,3-2.9,5.2-2.9,6.6c0,0.3,0.1,0.5,0.2,0.7
			c0.1,0.1,0.4,0.2,0.8,0.2c0.6,0,1.1-0.3,1.4-0.9c0.4-0.6,0.7-1.2,1-1.7c0.6-0.5,1.2-1.1,1.7-1.7c0.6-0.6,1.1-1.2,1.6-1.7
			c0.6-0.7,1.1-1.4,1.4-2.2c0.3-0.7,0.5-1.4,0.5-2.2c0-0.5-0.1-0.8-0.3-1.1C615.8,94,615.6,93.8,615.2,93.8z"/>
		<path class="st3" d="M629.7,119c0.8-1.1,1.7-2.2,2.5-3.4c3.9-3.1,7-6.1,9.5-9c2.5-2.9,4.3-5.5,5.4-8l-0.8-3.7
			c0.7-1.3,2.4-2.8,5.1-4.6c2.7-1.8,4.9-2.6,6.6-2.6c1.8,0,3.3,0.5,4.6,1.6c1.2,1,2.5,2.1,3.6,3.3c0.6,0.4,1,0.6,1.3,0.9
			c2.1,1.6,3.7,3.7,4.8,6.4c1.1,2.7,1.6,6.1,1.6,10c0,2.1-0.8,5-2.5,8.9c-1.6,3.9-2.5,6.8-2.5,8.7c0,0.3,0.1,0.5,0.3,0.6
			c0.2,0.2,0.4,0.2,0.8,0.2c0.7,0,1.5-0.3,2.5-0.9c1-0.6,2-1.4,3.1-2.4c2.8-2.7,4.5-4.2,5.1-4.5c0.6-0.3,1.3-0.8,2.1-1.4
			c0.4,1,0.9,2.1,1.5,3.3c0.6,1.2,1.1,2.5,1.7,3.8c-0.5,0.4-1,0.9-1.6,1.5c-0.6,0.6-1.3,1.2-2.2,1.9c-1.8,1.3-4.1,2.9-7,4.7
			c-2.9,1.8-6.3,3.9-10.4,6.3c-1.1,0.7-2.3,1.2-3.7,1.6c-2.2,0-3.9-0.3-5-1c-1.1-0.6-1.7-1.7-1.7-3.1c0-0.6,0.1-1.2,0.4-2
			c0.2-0.7,0.6-1.6,1-2.4c0.3-0.7,0.7-1.4,1-2.1c0.4-0.7,0.7-1.4,1-2.1c1.2-3.3,2.1-6.3,2.7-9.1c0.6-2.8,0.9-5.3,0.9-7.5
			c0-2.7-0.4-4.8-1.3-6.3c-0.9-1.4-2.2-2.3-3.9-2.5c-1.2,0.6-2.4,1.5-3.8,2.6c-1.4,1.1-2.8,2.6-4.2,4.3c-1.5,1.9-2.9,3.4-4.1,4.6
			c-1.2,1.2-2.2,2-3,2.4c-0.5,0.8-1.2,1.7-2.3,2.6c-1.1,1-2.5,2-4.2,3.2c-0.1,0.2-0.3,0.5-0.5,0.9c-0.2,0.4-0.6,0.9-1,1.4
			c-0.4-1.2-0.9-2.4-1.4-3.5C631,121.5,630.4,120.3,629.7,119z"/>
	</g>
</g>
</svg>
