<?xml version="1.0" encoding="utf-8"?>
<!-- Generator: Adobe Illustrator 24.1.2, SVG Export Plug-In . SVG Version: 6.00 Build 0)  -->
<svg version="1.1" id="Layer_1_1_" xmlns="http://www.w3.org/2000/svg" xmlns:xlink="http://www.w3.org/1999/xlink" x="0px" y="0px"
	 viewBox="0 0 512 512" style="enable-background:new 0 0 512 512;" xml:space="preserve">
<style type="text/css">
	.st0{fill:#CB4042;}
</style>
<path class="st0" d="M473.9,276.2c-5.9-1.5-9.9-6.7-9.9-12.7V232c0-26.5-21.5-48-48-48h-80v-72c0-4.4-3.6-8-8-8H24c-4.4,0-8,3.6-8,8
	v208v32c0,4.4,3.6,8,8,8h56.7c-0.4,2.6-0.7,5.3-0.7,8c0,26.5,21.5,48,48,48s48-21.5,48-48c0-2.7-0.3-5.4-0.7-8h185.5
	c-0.4,2.6-0.7,5.3-0.7,8c0,26.5,21.5,48,48,48s48-21.5,48-48c0-2.7-0.3-5.4-0.7-8H488c4.4,0,8-3.6,8-8v-47.5
	C496,291.1,486.9,279.5,473.9,276.2L473.9,276.2z M448,264h-80v-32h80v31.5C448,263.7,448,263.8,448,264z M32,120h288v192H32V120z
	 M160,368c0,17.6-14.4,32-32,32s-32-14.4-32-32c0-2.7,0.5-5.4,1.2-8h8.3c-0.9,2.5-1.5,5.2-1.5,8c0,13.2,10.8,24,24,24s24-10.8,24-24
	c0-2.8-0.6-5.5-1.5-8h8.3C159.5,362.6,160,365.3,160,368z M136,368c0,4.4-3.6,8-8,8s-8-3.6-8-8s3.6-8,8-8
	C132.4,360,136,363.6,136,368z M440,368c0,17.6-14.4,32-32,32s-32-14.4-32-32c0-2.7,0.5-5.4,1.2-8h8.3c-0.9,2.5-1.5,5.2-1.5,8
	c0,13.2,10.8,24,24,24s24-10.8,24-24c0-2.8-0.6-5.5-1.5-8h8.3C439.5,362.6,440,365.3,440,368L440,368z M416,368c0,4.4-3.6,8-8,8
	s-8-3.6-8-8s3.6-8,8-8S416,363.6,416,368z M480,344H32v-16h296c4.4,0,8-3.6,8-8V200h80c11.8,0,22,6.5,27.6,16H360c-4.4,0-8,3.6-8,8
	v48c0,4.4,3.6,8,8,8h93.2c3.9,5.7,9.8,10,16.8,11.8c5.9,1.5,9.9,6.7,9.9,12.7V344z"/>
<path class="st0" d="M360,296h24v16h-24V296z"/>
<path class="st0" d="M245.2,153.9c-3-2.6-7.4-2.6-10.4,0l-56,48c-2.5,2.2-3.5,5.7-2.3,8.8c1.2,3.1,4.2,5.2,7.5,5.2v56
	c0,4.4,3.6,8,8,8h96c4.4,0,8-3.6,8-8v-56c3.3,0,6.3-2.1,7.5-5.2c1.2-3.1,0.2-6.7-2.3-8.8L245.2,153.9z M240,170.5l34.4,29.5h-68.8
	L240,170.5z M248,264h-16v-8c0-4.4,3.6-8,8-8s8,3.6,8,8V264z M280,264h-16v-8c0-13.2-10.8-24-24-24s-24,10.8-24,24v8h-16v-48h80V264
	z"/>
<path class="st0" d="M64,256c0-4.4,3.6-8,8-8h56c13.2,0,24-10.8,24-24s-10.8-24-24-24h-24c-4.4,0-8-3.6-8-8s3.6-8,8-8h88v-16h-88
	c-13.2,0-24,10.8-24,24s10.8,24,24,24h24c4.4,0,8,3.6,8,8s-3.6,8-8,8H72c-13.2,0-24,10.8-24,24s10.8,24,24,24h104v-16H72
	C67.6,264,64,260.4,64,256z"/>
</svg>
